<svg height="512" viewBox="0 0 512 512" width="512" xmlns="http://www.w3.org/2000/svg"><g id="Flat"><path d="m128 144a72 72 0 0 0 -72 72v6.863a273.138 273.138 0 0 0 80 193.137h240a273.138 273.138 0 0 0 80-193.137v-6.863a72 72 0 0 0 -72-72z" fill="#f6aeae"/><path d="m336 256a64 64 0 0 1 -64-64 128 128 0 0 1 51.2-102.4l12.8-9.6 12.8 9.6a128 128 0 0 1 51.2 102.4 64 64 0 0 1 -64 64z" fill="#91563a"/><g fill="#78462f"><path d="m328 112h16v120h-16z"/><path d="m296 152h16v56h-16z"/><path d="m360 152h16v56h-16z"/></g><path d="m212 112a108 108 0 0 0 -108 108 36 36 0 0 0 36 36 36 36 0 0 0 36-36 36 36 0 0 1 36-36 36 36 0 0 0 36-36 36 36 0 0 0 -36-36z" fill="#fdd560"/><path d="m232 296a24 24 0 0 1 -24-24v-32a24 24 0 0 1 24-24l24 24v32a24 24 0 0 1 -24 24z" fill="#f9a40f"/><path d="m456 216a72 72 0 0 1 -72 72h-256a72 72 0 0 1 -72-72v6.863a273.138 273.138 0 0 0 80 193.137h240a273.138 273.138 0 0 0 80-193.137z" fill="#dfdfdd"/><path d="m477.324 402.874a35.983 35.983 0 0 0 -51.549 0 35.986 35.986 0 0 1 -51.55 0 35.983 35.983 0 0 0 -51.549 0 37.614 37.614 0 0 0 0 52.5 107.952 107.952 0 0 0 154.648 0 37.614 37.614 0 0 0 0-52.5z" fill="#fdd560"/><path d="m104 448a24 24 0 0 1 -24 24h-32a24 24 0 0 1 -24-24l24-24h32a24 24 0 0 1 24 24z" fill="#ffb431"/><path d="m280.971 80.569a24 24 0 0 1 -33.942 0l-13.254-13.255a32 32 0 0 1 -9.375-22.628v-20.686h20.686a32 32 0 0 1 22.628 9.373l13.255 13.254a24 24 0 0 1 .002 33.942z" fill="#ffb431"/><rect fill="#fdd560" height="64" rx="20" transform="matrix(0 1 -1 0 636 300)" width="40" x="148" y="436"/><rect fill="#fdd560" height="64" rx="20" transform="matrix(.707 .707 -.707 .707 96.603 -96.25)" width="40" x="144.485" y="36.485"/></g></svg>