<svg height="512" viewBox="0 0 512 512" width="512" xmlns="http://www.w3.org/2000/svg"><g id="Filled_outline" data-name="Filled outline"><path d="m56 120h432v240h-432z" fill="#7f9954"/><path d="m456 312v-160h-432v240h352a38.628 38.628 0 0 0 27.314-11.314l41.372-41.372a38.628 38.628 0 0 0 11.314-27.314z" fill="#96b268"/><path d="m392 360h-304a32 32 0 0 0 -32-32v-112a32 32 0 0 0 32-32h304a32 32 0 0 0 32 32v112a32 32 0 0 0 -32 32z" fill="#7f9954"/><path d="m444.686 339.314a38.628 38.628 0 0 0 11.314-27.314 16 16 0 0 1 -16 16h-48v48a16 16 0 0 1 -16 16 38.628 38.628 0 0 0 27.314-11.314z" fill="#aabf86"/><path d="m116.634 251.271a4.919 4.919 0 0 0 6.746 2.794 4.919 4.919 0 0 1 6.554 6.554 4.919 4.919 0 0 0 2.794 6.746 4.918 4.918 0 0 1 0 9.268 4.919 4.919 0 0 0 -2.794 6.746 4.919 4.919 0 0 1 -6.554 6.554 4.919 4.919 0 0 0 -6.746 2.794 4.918 4.918 0 0 1 -9.268 0 4.919 4.919 0 0 0 -6.746-2.794 4.919 4.919 0 0 1 -6.554-6.554 4.919 4.919 0 0 0 -2.794-6.746 4.918 4.918 0 0 1 0-9.268 4.919 4.919 0 0 0 2.794-6.746 4.919 4.919 0 0 1 6.554-6.554 4.919 4.919 0 0 0 6.746-2.794 4.918 4.918 0 0 1 9.268 0z" fill="#96b268"/><ellipse cx="240" cy="272" fill="#96b268" rx="72" ry="88"/><path d="m372.634 251.271a4.919 4.919 0 0 0 6.746 2.794 4.919 4.919 0 0 1 6.554 6.554 4.919 4.919 0 0 0 2.794 6.746 4.918 4.918 0 0 1 0 9.268 4.919 4.919 0 0 0 -2.794 6.746 4.919 4.919 0 0 1 -6.554 6.554 4.919 4.919 0 0 0 -6.746 2.794 4.918 4.918 0 0 1 -9.268 0 4.919 4.919 0 0 0 -6.746-2.794 4.919 4.919 0 0 1 -6.554-6.554 4.919 4.919 0 0 0 -2.794-6.746 4.918 4.918 0 0 1 0-9.268 4.919 4.919 0 0 0 2.794-6.746 4.919 4.919 0 0 1 6.554-6.554 4.919 4.919 0 0 0 6.746-2.794 4.918 4.918 0 0 1 9.268 0z" fill="#96b268"/><path d="m297.79 324.48c-13.12 21.56-34.12 35.52-57.79 35.52s-44.67-13.96-57.79-35.52a64.127 64.127 0 0 1 41.17-34.29c-9.22-7.02-15.38-19.7-15.38-34.19 0-22.09 14.33-40 32-40s32 17.91 32 40c0 14.49-6.16 27.17-15.38 34.19a64.127 64.127 0 0 1 41.17 34.29z" fill="#7f9954"/><g fill="#96b268"><path d="m96 320h16v16h-16z"/><path d="m128 320h16v16h-16z"/><path d="m328 208h16v16h-16z"/><path d="m360 208h16v16h-16z"/><path d="m104 208h48v16h-48z"/><path d="m320 320h48v16h-48z"/></g><path d="m480 128h-432v-16h440a8 8 0 0 1 8 8v240a8 8 0 0 1 -8 8h-24v-16h16zm-464 264v-192h16v184h344a8.009 8.009 0 0 0 8-8v-8h-296a8 8 0 0 1 -8-8 23.992 23.992 0 0 0 -24-24 8 8 0 0 1 -8-8v-112a8 8 0 0 1 8-8 23.992 23.992 0 0 0 24-24 8 8 0 0 1 8-8h304a8 8 0 0 1 8 8 23.992 23.992 0 0 0 24 24 8 8 0 0 1 8 8v88h-16v-80.795a40.058 40.058 0 0 1 -31.2-31.205h-100.631c21.579 17.213 35.831 46.644 35.831 80s-14.252 62.787-35.831 80h99.831v-24a8 8 0 0 1 8-8h48a8.009 8.009 0 0 0 8-8v-152h-416v24h-16v-32a8 8 0 0 1 8-8h432a8 8 0 0 1 8 8v160a46.32 46.32 0 0 1 -13.657 32.971l-41.373 41.373a46.326 46.326 0 0 1 -32.97 13.656h-352a8 8 0 0 1 -8-8zm384-19.313 36.686-36.687h-36.686zm-204.169-20.687c-21.579-17.213-35.831-46.644-35.831-80a112.959 112.959 0 0 1 5.288-34.435l15.24 4.87a96.993 96.993 0 0 0 -4.528 29.565 95.968 95.968 0 0 0 6.919 36.111 71.833 71.833 0 0 1 26.381-21.252 53.975 53.975 0 0 1 -9.3-30.859c0-26.467 17.944-48 40-48s40 21.533 40 48a53.975 53.975 0 0 1 -9.3 30.859 71.833 71.833 0 0 1 26.376 21.252 95.968 95.968 0 0 0 6.924-36.111c0-44.112-28.71-80-64-80-21.426 0-41.35 13.37-53.3 35.766l-14.117-7.532a90.229 90.229 0 0 1 23.089-28.234h-100.467a40.058 40.058 0 0 1 -31.205 31.205v97.595a40.058 40.058 0 0 1 31.205 31.2zm92.693-27.926a55.871 55.871 0 0 0 -33.976-26.157 8 8 0 0 1 -2.775-14.092c7.542-5.742 12.227-16.404 12.227-27.825 0-17.645-10.767-32-24-32s-24 14.355-24 32c0 11.421 4.685 22.083 12.227 27.825a8 8 0 0 1 -2.775 14.092 55.876 55.876 0 0 0 -33.977 26.157c11.747 17.078 29.136 27.926 48.525 27.926s36.778-10.848 48.524-27.926zm-144.524-52.074a12.759 12.759 0 0 1 -5.854 10.83 12.947 12.947 0 0 1 -15.316 15.317 12.945 12.945 0 0 1 -21.66 0 12.945 12.945 0 0 1 -15.316-15.315 12.946 12.946 0 0 1 0-21.661 12.947 12.947 0 0 1 15.316-15.317 12.945 12.945 0 0 1 21.66 0 12.945 12.945 0 0 1 15.316 15.315 12.761 12.761 0 0 1 5.854 10.831zm-18.618 0a12.9 12.9 0 0 1 -3.92-9.462 12.762 12.762 0 0 1 -5.137-.98 12.944 12.944 0 0 1 -4.325-2.939 12.944 12.944 0 0 1 -4.325 2.939 12.745 12.745 0 0 1 -5.137.98 12.9 12.9 0 0 1 -3.92 9.462 12.9 12.9 0 0 1 3.92 9.462h.194a12.9 12.9 0 0 1 9.268 3.919 12.9 12.9 0 0 1 9.462-3.919 12.9 12.9 0 0 1 3.92-9.462zm268.764 10.83a12.947 12.947 0 0 1 -15.316 15.317 12.945 12.945 0 0 1 -21.66 0 12.945 12.945 0 0 1 -15.316-15.315 12.946 12.946 0 0 1 0-21.661 12.947 12.947 0 0 1 15.316-15.317 12.945 12.945 0 0 1 21.66 0 12.945 12.945 0 0 1 15.316 15.315 12.946 12.946 0 0 1 0 21.661zm-12.764-10.83a12.9 12.9 0 0 1 -3.92-9.462 12.9 12.9 0 0 1 -9.462-3.919 12.944 12.944 0 0 1 -4.325 2.939 12.687 12.687 0 0 1 -5.137.98 12.9 12.9 0 0 1 -3.92 9.462 12.9 12.9 0 0 1 3.92 9.462h.194a12.9 12.9 0 0 1 9.268 3.919 12.944 12.944 0 0 1 4.325-2.939 13.093 13.093 0 0 1 5.137-.98 12.9 12.9 0 0 1 3.92-9.462zm-285.382 64h16v-16h-16zm32 0h16v-16h-16zm216-128h-16v16h16zm32 0h-16v16h16zm-272 16h48v-16h-48zm216 112h48v-16h-48z"/></g></svg>