<svg height="512" viewBox="0 0 512 512" width="512" xmlns="http://www.w3.org/2000/svg"><g id="Flat"><path d="m362.17 208.32a24 24 0 0 1 -18.17 39.68h-176a24 24 0 0 1 -6.9-46.99 23.684 23.684 0 0 1 3.18-.72 111.559 111.559 0 0 1 -20.28-64.29c0-.95.01-1.9.04-2.84a.045.045 0 0 1 0-.05 112 112 0 1 1 203.68 67.18 23.931 23.931 0 0 1 14.45 8.03z" fill="#92563a"/><path d="m362.17 208.32a24 24 0 0 1 -18.17 39.68h-176a24 24 0 0 1 -6.9-46.99q2.475.09 4.98.09a147.515 147.515 0 0 0 147.52-147.51c0-4.74-.23-9.43-.66-14.06a112.043 112.043 0 0 1 34.78 160.76 23.931 23.931 0 0 1 14.45 8.03z" fill="#875036"/><path d="m357.69 89.02a19.994 19.994 0 0 0 -13.69 18.98v8a20 20 0 0 1 -40 0v-16a20 20 0 0 0 -40 0v48a20 20 0 0 1 -40 0v-24a20 20 0 0 0 -40 0v8a20 20 0 0 1 -39.96 1.16.045.045 0 0 1 0-.05 112.01 112.01 0 0 1 213.65-44.09z" fill="#4f2816"/><path d="m344 248-9.84 26.84-6.07 16.56-.7 1.9-14.33 39.07-8.95 24.43-6.07 16.55-3.07 8.36-13.1 35.73-7.81 21.31-6.07 16.55-11.99 32.7-11.99-32.7-6.07-16.55-7.81-21.31-13.1-35.72-3.07-8.37-6.07-16.55-8.95-24.43-14.33-39.07-.7-1.9-6.07-16.56-9.84-26.84z" fill="#fa9f0c"/><path d="m339.32 248h-22.63l-4.69 4.69-4.69-4.69h-22.62l16 16-16.69 16.69-16.69-16.69 16-16h-22.62l-4.69 4.69-4.69-4.69h-22.62l16 16-16.69 16.69-16.69-16.69 16-16h-22.62l-4.69 4.69-4.69-4.69h-22.63l16.01 16-10.85 10.84 6.07 16.56 16.09-16.09 16.69 16.69-16.69 16.69-15.39-15.39 14.33 39.07 1.06-1.06 16.69 16.69-8.8 8.8 6.07 16.55 14.04-14.04 16.69 16.69-16.69 16.69-10.97-10.97 13.1 35.72 14.56 14.56-6.75 6.75 6.07 16.55 11.99-11.99 11.99 11.99 6.07-16.55-6.75-6.75 14.56-14.56 13.1-35.73-10.97 10.98-16.69-16.69 16.69-16.69 14.04 14.04 6.07-16.55-8.8-8.8 16.69-16.69 1.06 1.06 14.33-39.07-15.39 15.39-16.69-16.69 16.69-16.69 16.09 16.09 6.07-16.56-10.85-10.84zm-83.32 27.31 16.69 16.69-16.69 16.69-16.69-16.69zm-44.69 44.69 16.69-16.69 16.69 16.69-16.69 16.69zm61.38 84-16.69 16.69-16.69-16.69 16.69-16.69zm-16.69-39.31-16.69-16.69 16.69-16.69 16.69 16.69zm44.69-44.69-16.69 16.69-16.69-16.69 16.69-16.69z" fill="#ffb531"/><path d="m352 208h-160a8 8 0 0 1 0-16h160a8 8 0 0 1 0 16z" fill="#78462f"/></g></svg>