<svg height="512" viewBox="0 0 512 512" width="512" xmlns="http://www.w3.org/2000/svg"><g id="Flat"><circle cx="168" cy="104" fill="#ffb531" r="80"/><path d="m224 104a55.782 55.782 0 1 1 -3.98-20.78 55.872 55.872 0 0 1 3.98 20.78z" fill="#fce25d"/><path d="m183.98 104.13 35.97 20.82a55.875 55.875 0 0 1 -8.05 13.82l-35.9-20.77v41.43a56.425 56.425 0 0 1 -16 0v-41.38l-35.84 20.8a56.288 56.288 0 0 1 -8.08-13.82l35.98-20.88-36.1-20.89a56.074 56.074 0 0 1 8-13.85l36.04 20.85v-41.69a56.425 56.425 0 0 1 16 0v41.69l36.01-20.9a56.169 56.169 0 0 1 8.01 13.86z" fill="#ffe978"/><path d="m232 360h-32l104-336h32z" fill="#e0e0de"/><path d="m343.19 296.11a92.021 92.021 0 0 1 .81 12.2v9.93a91.945 91.945 0 0 1 -72 89.76h-32a91.927 91.927 0 0 1 -72-89.76v-9.93a91.983 91.983 0 0 1 3.24-24.19 313.523 313.523 0 0 0 11.05-82.49 313.7 313.7 0 0 0 -6.95-65.63c-.34-1.63-.71-3.26-1.08-4.88l-6.26-27.12h176l-6.26 27.12c-.37 1.62-.74 3.25-1.08 4.88a313.538 313.538 0 0 0 4.1 148.12 92.606 92.606 0 0 1 2.43 11.99z" fill="#a0dde5"/><path d="m192 456h128a32 32 0 0 1 32 32 0 0 0 0 1 0 0h-192a0 0 0 0 1 0 0 32 32 0 0 1 32-32z" fill="#a0dde5"/><path d="m240 408h32v48h-32z" fill="#92d8e0"/><path d="m344 308.31v9.93a91.945 91.945 0 0 1 -72 89.76h-32a91.872 91.872 0 0 1 -72-89.76v-9.93a91.983 91.983 0 0 1 3.24-24.19 313.523 313.523 0 0 0 11.05-82.49 313.7 313.7 0 0 0 -6.95-65.63h161.32a313.175 313.175 0 0 0 -6.93 63.47c-.01.01 0 .01 0 .01a313.273 313.273 0 0 0 11.03 84.64 91.568 91.568 0 0 1 3.24 24.19z" fill="#4db7e5"/><path d="m344 308.31v9.93a91.945 91.945 0 0 1 -72 89.76h-32a91.973 91.973 0 0 1 -68.48-64.51c57.23-29.41 111.57-75.67 158.21-144.01a313.273 313.273 0 0 0 11.03 84.64 91.568 91.568 0 0 1 3.24 24.19z" fill="#4aafdb"/><g fill="#79c6e8"><path d="m214.217 274.8-15.577-3.655c1.3-5.528 2.761-11.946 3.718-18.163l15.814 2.434c-1.044 6.784-2.589 13.559-3.955 19.384z"/><path d="m208.873 362.279a74.665 74.665 0 0 1 -15.161-30.654c-3.819-16.246-1.365-32.264 1.54-45.789l15.648 3.364c-2.659 12.38-4.694 25.644-1.608 38.767a58.574 58.574 0 0 0 11.868 24.064z"/></g></g></svg>