<svg height="512" viewBox="0 0 128 128" width="512" xmlns="http://www.w3.org/2000/svg"><g><g><path d="m98.75 22.471-8.125-15.971h-26.625-26.625l-8.125 15.971z" fill="#e2a76f"/><path d="m98 22.47-1.45 22.13-2.33 35.4-.51 7.75-1.84 28.14a6 6 0 0 1 -5.99 5.61h-43.76a6 6 0 0 1 -5.99-5.61l-1.84-28.14-.51-7.75-2.33-35.4-1.45-22.13z" fill="#e2a76f"/><path d="m24.192 19.471h79.615v6h-79.615z" fill="#aa7e54"/><path d="m96.55 44.6-2.33 35.4-.51 7.75h-59.42l-.51-7.75-2.33-35.4z" fill="#aa7e54"/><ellipse cx="64" cy="66.175" fill="#eaeaf0" rx="8.125" ry="11"/></g><g fill="#20334d"><path d="m86.1 112.072h.117a1.75 1.75 0 0 0 1.744-1.636l.893-13.651a1.75 1.75 0 1 0 -3.492-.229l-.893 13.651a1.749 1.749 0 0 0 1.631 1.865z"/><path d="m103.808 17.721h-5.514l-6.104-12.013a1.748 1.748 0 0 0 -1.56-.958h-4.63a1.75 1.75 0 0 0 0 3.5h3.556l4.812 9.471h-60.734l4.819-9.471h39.8a1.75 1.75 0 0 0 0-3.5h-40.873a1.752 1.752 0 0 0 -1.56.957l-6.113 12.014h-5.515a1.751 1.751 0 0 0 -1.75 1.75v6a1.75 1.75 0 0 0 1.75 1.75h4.369l1.139 17.379v.026l4.681 71.38a7.775 7.775 0 0 0 7.736 7.244h43.763a7.775 7.775 0 0 0 7.736-7.25l2.646-40.388a1.75 1.75 0 1 0 -3.492-.229l-.696 10.617h-56.151l-2.6-39.65h11.26a1.75 1.75 0 0 0 0-3.5h-11.489l-1.025-15.629h63.862l-1.025 15.629h-33.073a1.75 1.75 0 0 0 0 3.5h32.844l-1.293 19.71a1.75 1.75 0 0 0 1.631 1.861h.117a1.75 1.75 0 0 0 1.744-1.635l1.424-21.652c0-.012 0-.022 0-.034v-.007l1.14-17.372h4.369a1.75 1.75 0 0 0 1.75-1.75v-6a1.751 1.751 0 0 0 -1.751-1.75zm-11.963 71.779-1.721 26.274a4.267 4.267 0 0 1 -4.244 3.976h-43.76a4.267 4.267 0 0 1 -4.244-3.974l-1.723-26.276zm10.213-65.779h-76.116v-2.5h76.116z"/><path d="m57 44.6a1.75 1.75 0 0 0 -1.75-1.75h-3.563a1.75 1.75 0 0 0 0 3.5h3.563a1.75 1.75 0 0 0 1.75-1.75z"/><path d="m64 78.925c5.445 0 9.875-5.72 9.875-12.75s-4.43-12.75-9.875-12.75-9.875 5.72-9.875 12.75 4.43 12.75 9.875 12.75zm0-22c3.456 0 6.375 4.236 6.375 9.25s-2.919 9.25-6.375 9.25-6.375-4.236-6.375-9.25 2.919-9.25 6.375-9.25z"/></g></g></svg>