<svg height="512" viewBox="0 0 512 512" width="512" xmlns="http://www.w3.org/2000/svg"><g id="Flat"><path d="m227.58 330.42a136.875 136.875 0 0 0 0 75.16 136.854 136.854 0 0 1 5.26 37.58v20.84a24.006 24.006 0 0 1 -24 24h-128a24.006 24.006 0 0 1 -24-24v-20.84a136.78 136.78 0 0 1 5.26-37.58 136.731 136.731 0 0 0 5.26-37.58 136.731 136.731 0 0 0 -5.26-37.58q-1.47-5.16-2.53-10.42a134.451 134.451 0 0 1 -2.4-17.75q-.33-4.695-.33-9.41v-34.99a137.662 137.662 0 0 1 8.22-46.87c.36-1 .73-1.99 1.12-2.98a137.577 137.577 0 0 1 22.58-38.3 39.962 39.962 0 0 0 9.13-22.28l5.35-64.22 1.6-19.2h80l1.6 19.2 5.35 64.22a40.049 40.049 0 0 0 9.13 22.28 137.651 137.651 0 0 1 31.92 88.15v34.99a136.5 136.5 0 0 1 -1.32 18.97q-.57 4.11-1.41 8.19-1.05 5.25-2.53 10.42z" fill="#7a432a"/><path d="m227.58 330.42a136.875 136.875 0 0 0 0 75.16 136.854 136.854 0 0 1 5.26 37.58v20.84a24.006 24.006 0 0 1 -24 24h-128a24.006 24.006 0 0 1 -24-24v-20.84a136.78 136.78 0 0 1 5.26-37.58 136.731 136.731 0 0 0 5.26-37.58 136.731 136.731 0 0 0 -5.26-37.58q-1.47-5.16-2.53-10.42a134.451 134.451 0 0 1 -2.4-17.75c57.56-24.18 111.42-61.07 156.45-114.56a137.586 137.586 0 0 1 19.22 70.16v34.99a136.5 136.5 0 0 1 -1.32 18.97q-.57 4.11-1.41 8.19-1.05 5.25-2.53 10.42z" fill="#6e3c26"/><path d="m119.5 188.438-13.312-8.876a86.994 86.994 0 0 0 14.656-48.406v-19.156h16v19.156a102.934 102.934 0 0 1 -17.344 57.282z" fill="#693924"/><path d="m170.184 188.438a102.941 102.941 0 0 1 -17.344-57.282v-19.156h16v19.156a86.991 86.991 0 0 0 14.66 48.406z" fill="#693924"/><path d="m136.84 352h16v80h-16z" fill="#5c2e1a"/><path d="m96.84 352h16v80h-16z" fill="#5c2e1a"/><path d="m176.84 352h16v80h-16z" fill="#5c2e1a"/><path d="m186.44 83.2-9.6 4.8-16-8-16 8-16-8-16 8-9.6-4.8 1.6-19.2h80z" fill="#693924"/><path d="m232.84 257.85v34.99a136.5 136.5 0 0 1 -1.32 18.97q-.57 4.11-1.41 8.19h-170.54a134.451 134.451 0 0 1 -2.4-17.75q-.33-4.695-.33-9.41v-34.99a137.662 137.662 0 0 1 8.22-46.87c.36-1 .73-1.99 1.12-2.98h157.32a137.643 137.643 0 0 1 9.34 49.85z" fill="#f35244"/><path d="m456 225.55q0 3.225-.06 6.45a351.373 351.373 0 0 1 -15.48 96.88 351.321 351.321 0 0 0 -14.76 79.96l-5.28 79.16h-112l-5.28-79.16a351.538 351.538 0 0 0 -5.06-40.41q-2.34-12.66-5.6-25.12-1.89-7.26-4.1-14.43a351.094 351.094 0 0 1 -14.32-132.52l2.36-28.36h176l2.36 28.36q1.22 14.595 1.22 29.19z" fill="#a0dde5"/><path d="m456 225.55q0 3.225-.06 6.45a351.373 351.373 0 0 1 -15.48 96.88 351.321 351.321 0 0 0 -14.76 79.96l-5.28 79.16h-112l-5.28-79.16a351.538 351.538 0 0 0 -5.06-40.41q-2.34-12.66-5.6-25.12c47.32-39.96 90.97-96.89 127.24-175.31h32.7l2.36 28.36q1.22 14.595 1.22 29.19z" fill="#92d8e0"/><path d="m455.94 232a351.373 351.373 0 0 1 -15.48 96.88 351.321 351.321 0 0 0 -14.76 79.96l-5.28 79.16h-112l-5.28-79.16a351.538 351.538 0 0 0 -5.06-40.41q-2.34-12.66-5.6-25.12-1.89-7.26-4.1-14.43a351.373 351.373 0 0 1 -15.48-96.88z" fill="#693924"/><path d="m455.94 232a351.373 351.373 0 0 1 -15.48 96.88 351.321 351.321 0 0 0 -14.76 79.96l-5.28 79.16h-112l-5.28-79.16a351.538 351.538 0 0 0 -5.06-40.41q-2.34-12.66-5.6-25.12c33.34-28.15 64.85-64.73 93.25-111.31z" fill="#5c2e1a"/><path d="m316.42 272h48v48h-48z" fill="#8a5036"/><path d="m341.793 361.373h45.255v45.255h-45.255z" fill="#8a5036" transform="matrix(.707 -.707 .707 .707 -164.793 370.155)"/><g fill="#4f2816"><path d="m388.42 320h16v16h-16z"/><path d="m412.42 264h16v16h-16z"/><path d="m332.42 440h16v16h-16z"/><path d="m380.42 432h16v16h-16z"/></g><path d="m232.84 257.85v34.99a136.5 136.5 0 0 1 -1.32 18.97q-.57 4.11-1.41 8.19h-170.54a134.451 134.451 0 0 1 -2.4-17.75c49.97-20.99 97.15-51.56 138.17-94.25h28.16a137.643 137.643 0 0 1 9.34 49.85z" fill="#e64c3f"/><path d="m99.309 248.487-15.971-.974a135.985 135.985 0 0 1 2.124-17l15.719 2.982a119.668 119.668 0 0 0 -1.872 14.992z" fill="#fc685b"/><path d="m83.086 264h16v32h-16z" fill="#fc685b"/><path d="m192.84 64-16 8-16-8-16 8-16-8-16 8-16-8v-24a16 16 0 0 1 16-16h64a16 16 0 0 1 16 16z" fill="#f35244"/></g></svg>