<svg height="512pt" viewBox="0 0 512 512" width="512pt" xmlns="http://www.w3.org/2000/svg"><path d="m272 512h-224c-26.464844 0-48-21.535156-48-48v-336h320v336c0 26.464844-21.535156 48-48 48zm0 0" fill="#e76e54"/><path d="m208 432c-8.832031 0-16-7.167969-16-16v-224c0-8.832031 7.167969-16 16-16s16 7.167969 16 16v224c0 8.832031-7.167969 16-16 16zm0 0" fill="#dd523c"/><path d="m112 432c-8.832031 0-16-7.167969-16-16v-224c0-8.832031 7.167969-16 16-16s16 7.167969 16 16v224c0 8.832031-7.167969 16-16 16zm0 0" fill="#dd523c"/><path d="m224 80h-32v-48h-64v48h-32v-80h128zm0 0" fill="#62808c"/><g fill="#77959e"><path d="m480 224h32v32h-32zm0 0"/><path d="m352 224h96v32h-96zm0 0"/><path d="m480 320h32v32h-32zm0 0"/><path d="m384 320h64v32h-64zm0 0"/></g><path d="m272 480h-224c-26.464844 0-48-21.535156-48-48v32c0 26.464844 21.535156 48 48 48h224c26.464844 0 48-21.535156 48-48v-32c0 26.464844-21.535156 48-48 48zm0 0" fill="#dd523c"/><path d="m304 96h-288c-8.832031 0-16-7.167969-16-16s7.167969-16 16-16h288c8.832031 0 16 7.167969 16 16s-7.167969 16-16 16zm0 0" fill="#77959e"/><path d="m32 224h32v32h-32zm0 0" fill="#fff"/><path d="m32 160h32v32h-32zm0 0" fill="#fff"/></svg>