<svg id="Capa_1" enable-background="new 0 0 512 512" height="512" viewBox="0 0 512 512" width="512" xmlns="http://www.w3.org/2000/svg"><g><path d="m256 512c-68.38 0-132.667-26.629-181.02-74.98-48.351-48.353-74.98-112.64-74.98-181.02s26.629-132.667 74.98-181.02c48.353-48.351 112.64-74.98 181.02-74.98s132.667 26.629 181.02 74.98c48.351 48.353 74.98 112.64 74.98 181.02s-26.629 132.667-74.98 181.02c-48.353 48.351-112.64 74.98-181.02 74.98zm0-321.334c-36.025 0-65.333 29.309-65.333 65.334 0 36.024 29.309 65.333 65.333 65.333s65.333-29.309 65.333-65.333c0-36.025-29.309-65.334-65.333-65.334z" fill="#ffde46"/><path d="m256 0v190.666c36.024 0 65.333 29.309 65.333 65.334 0 36.024-29.309 65.333-65.333 65.333v190.667c68.38 0 132.667-26.629 181.02-74.98 48.351-48.353 74.98-112.64 74.98-181.02s-26.629-132.667-74.98-181.02c-48.353-48.351-112.64-74.98-181.02-74.98z" fill="#ff9d21"/><path d="m416.667 402.334v-131.382c0-8.284-6.716-15-15-15h-80.334c-.026-36.346-29.887-65.844-66.367-65.277-35.841.557-64.3 30.471-64.3 66.316v87.384c0 20.78-16.845 37.625-37.625 37.625-20.78 0-37.625-16.845-37.625-37.625v-73.304c0-8.284-6.716-15-15-15h-100.416c-.019-68.406 26.612-132.721 74.98-181.091 48.353-48.351 112.64-74.98 181.02-74.98s132.667 26.629 181.02 74.98c48.351 48.353 74.98 112.64 74.98 181.02v146.334c0 26.325-21.341 47.666-47.666 47.666-26.326 0-47.667-21.341-47.667-47.666z" fill="#9d5e4a"/><path d="m256 0v190.686c36.006.002 65.307 29.265 65.333 65.266h80.334c8.284 0 15 6.716 15 15v131.382c0 26.325 21.341 47.667 47.667 47.667 26.325-.001 47.666-21.342 47.666-47.668v-146.333c0-68.38-26.629-132.667-74.98-181.02-48.353-48.351-112.64-74.98-181.02-74.98z" fill="#734536"/><g fill="#ebe1dc"><circle cx="421" cy="191" r="15"/><circle cx="331" cy="141" r="15"/><circle cx="291" cy="71" r="15"/></g><circle cx="211" cy="111" fill="#f5f0eb" r="15"/><circle cx="121" cy="151" fill="#f5f0eb" r="15"/><circle cx="206" cy="401" fill="#ff9d21" r="15"/><circle cx="301" cy="431" fill="#ff7038" r="15"/><circle cx="361" cy="351" fill="#ff7038" r="15"/></g></svg>