<svg id="Layer_1" height="512" viewBox="0 0 512 512" width="512" xmlns="http://www.w3.org/2000/svg" data-name="Layer 1"><path d="m357.39 335.39v.01l-34.47 18.57-.07.08a36.113 36.113 0 0 0 -23.96-9.05h-10.8l28.72-15.62c13.01-7.54 29.95-4.62 40.58 6.01z" fill="#e8cecd"/><path d="m397.25 341.71c-6.02-10.58-20.26-16.53-31.12-11.02l-43.21 23.28-.07.08a36.119 36.119 0 0 1 11.79 21.43l62.65-33.69z" fill="#f2d4d1"/><path d="m139.5 494.76-41.31-133.785a4.158 4.158 0 0 0 -3.82-2.975h-70.43a4.1 4.1 0 0 0 -3.85 5.195l37.21 133.742a4.126 4.126 0 0 0 3.85 3.063h74.52a4.062 4.062 0 0 0 3.83-5.24z" fill="#adf8d1"/><path d="m280.785 70.89-31.785-.09v29.2h32v-28.85z" fill="#ccd3df"/><path d="m248.63 70.8a31.513 31.513 0 1 1 15.94 4.33 31.475 31.475 0 0 1 -15.94-4.33z" fill="#b0b5ca"/><path d="m280.52 99.73c89.17 6.6 161.36 68.08 177.43 148.19h-386.76c16.07-80.11 88.26-141.59 177.44-148.19q7.875-.585 15.94-.59t15.95.59z" fill="#b0b5ca"/><path d="m469.24 280.16-5.47 26.32a19.555 19.555 0 0 1 -19.14 15.58h-360.72a19.553 19.553 0 0 1 -19.23-16.01l-4.78-25.89z" fill="#6d7486"/><path d="m403.74 338.31-69.1 37.17a36.176 36.176 0 0 0 -35.75-30.48h-48.7a57.931 57.931 0 0 1 -25.21-5.78l-5.02-2.43a81.018 81.018 0 0 0 -84.01 8.21l-12.13 10.79a47.41 47.41 0 0 1 -22.98 11.24l-.72.23 28.18 90.68 39.64-25.06a27.228 27.228 0 0 1 19.92-2.64l73.19 13.48a90.618 90.618 0 0 0 9.41 1.19 86.274 86.274 0 0 0 54.92-15.29l117.44-80.63a29.342 29.342 0 0 0 -39.08-10.68z" fill="#fdddd8"/><path d="m87.3 496.937-37.21-133.737a4.1 4.1 0 0 1 3.85-5.2h-30a4.1 4.1 0 0 0 -3.85 5.195l37.21 133.742a4.126 4.126 0 0 0 3.85 3.063h30a4.126 4.126 0 0 1 -3.85-3.063z" fill="#8bc6a3"/><path d="m278.63 99.73c.314-.023.63-.039.944-.061q-7.428-.519-15-.529-8.055 0-15.94.59c-89.18 6.6-161.37 68.08-177.44 148.19h30c16.066-80.11 88.256-141.59 177.436-148.19z" fill="#d3d9ea"/><path d="m94.68 306.05-4.78-25.89h-30l4.78 25.89a19.553 19.553 0 0 0 19.23 16.01h30a19.553 19.553 0 0 1 -19.23-16.01z" fill="#9297a5"/><path d="m475.44 248h-421.74a16.524 16.524 0 0 0 -11.75 4.83 16.476 16.476 0 0 0 11.63 28.17h421.86a16.5 16.5 0 1 0 0-33z" fill="#4a5160"/><path d="m67.08 264.48a16.324 16.324 0 0 1 4.87-11.65 16.524 16.524 0 0 1 11.75-4.83h-30a16.524 16.524 0 0 0 -11.75 4.83 16.476 16.476 0 0 0 11.63 28.17h30a16.431 16.431 0 0 1 -16.5-16.52z" fill="#6a7282"/><path d="m87.49 460.07a11.73 11.73 0 1 1 -11.73 11.73 11.726 11.726 0 0 1 11.73-11.73z" fill="#6cc289"/><g fill="#284268"><path d="m202.085 150.124c-1.957.845-3.911 1.74-5.808 2.659a6 6 0 1 0 5.235 10.8c1.739-.843 3.532-1.664 5.329-2.439a6 6 0 0 0 -4.756-11.018z"/><path d="m179.121 162.609a135.546 135.546 0 0 0 -37.435 37.15 6 6 0 1 0 9.96 6.693 123.593 123.593 0 0 1 34.145-33.867 6 6 0 0 0 -6.67-9.976z"/><path d="m69.758 471.8a17.729 17.729 0 1 0 17.728-17.728 17.748 17.748 0 0 0 -17.728 17.728zm23.457 0a5.729 5.729 0 1 1 -5.729-5.728 5.734 5.734 0 0 1 5.729 5.728z"/><path d="m475.442 242h-12.632c-18.301-79.867-89.81-139.085-175.81-147.754v-20.236a38.375 38.375 0 0 0 15.3-30.365 37.485 37.485 0 1 0 -74.97 0c0 12.48 5.669 23.548 15.669 30.365v20.237c-86.999 8.67-158.364 67.893-176.665 147.753h-12.209c-12.249 0-22.663 9.561-23.032 21.8a22.539 22.539 0 0 0 22.607 23.2h1.173l3.9 21.114a25.528 25.528 0 0 0 25.133 20.886h68.229a87.6 87.6 0 0 0 -19.8 11.2c-.131.1-.259.2-.381.313l-12.126 10.795a41.517 41.517 0 0 1 -15.676 8.735l-.237-.888a10.068 10.068 0 0 0 -9.546-7.155h-70.43a10.182 10.182 0 0 0 -9.633 12.871l37.213 133.7a10.129 10.129 0 0 0 9.632 7.429h74.524a10.112 10.112 0 0 0 9.565-13.034l-9.865-32.378 35.625-22.533a21.132 21.132 0 0 1 15.394-1.991c.124.031.249.056.375.079l73.209 13.479a94.948 94.948 0 0 0 10.044 1.269 92.563 92.563 0 0 0 58.754-16.321l117.437-80.633a6 6 0 0 0 1.744-8.041 35.263 35.263 0 0 0 -26.279-16.896h22.949a25.629 25.629 0 0 0 25.019-20.329l4.506-21.671h.868c12.249 0 22.663-9.561 23.032-21.8a22.54 22.54 0 0 0 -22.61-23.2zm-236.357-198.355a25.488 25.488 0 1 1 25.487 25.487 25.516 25.516 0 0 1 -25.487-25.487zm35.915 36.138v13.592c-4-.149-6.668-.231-10-.231s-7 .082-10 .231v-13.592a36.869 36.869 0 0 0 10 1.349 42.967 42.967 0 0 0 10-1.349zm-10.428 25.361c89.3 0 166.236 57.124 185.9 136.856h-371.802c19.669-79.726 96.622-136.856 185.902-136.856zm-201.901 388.856-36.1-130h66.429l40 130zm371.529-146.373-112.219 77.05a80.566 80.566 0 0 1 -51.094 14.245 82.667 82.667 0 0 1 -8.753-1.106l-73.014-13.444a33.075 33.075 0 0 0 -24.111 3.274c-.094.052-.187.107-.278.164l-33.026 20.879-23.985-77.167a53.532 53.532 0 0 0 20.087-11.249l11.938-10.627a74.747 74.747 0 0 1 77.6-7.452l5.022 2.43a64.268 64.268 0 0 0 27.82 6.376h48.7a30.261 30.261 0 0 1 29.547 23.9l-34.609-1.566a211.488 211.488 0 0 0 -38.513 1.778 6 6 0 0 0 1.647 11.888 199.738 199.738 0 0 1 36.325-1.679l41.542 1.88c.091 0 .182.007.272.007a6 6 0 0 0 6-6c0-.778-.025-1.55-.067-2.318l65.564-35.3a23.311 23.311 0 0 1 27.605 4.037zm-217.035-18.627h87.786l-18.389 10h-36.375a52.2 52.2 0 0 1 -22.594-5.179l-5.023-2.429q-2.676-1.292-5.405-2.392zm106.249 17.886a42.072 42.072 0 0 0 -14.123-6.589l10.384-5.646c.048-.026.1-.053.142-.08 7.981-4.626 18.117-4.411 26.445 0zm45.486-10.878c6.225-3.112 14-.727 19.212 3.913l-49.6 26.732a42.232 42.232 0 0 0 -6.061-11zm24.914-7.008h19.851a35.345 35.345 0 0 0 -12.769 4.024l-1.768.954a32.206 32.206 0 0 0 -5.314-4.978zm81.628-54h-319.442a6 6 0 0 0 0 12h305.9l-4 19.231a13.58 13.58 0 0 1 -13.273 10.769h-360.721a13.526 13.526 0 0 1 -13.327-11.064l-3.501-18.936h54.922a6 6 0 0 0 0-12h-68.072a10.726 10.726 0 0 1 -10.846-10.449 10.531 10.531 0 0 1 10.618-10.551h421.517a10.725 10.725 0 0 1 10.845 10.449 10.53 10.53 0 0 1 -10.62 10.551z"/></g></svg>