<svg id="Layer_1" enable-background="new 0 0 512 512" height="512" viewBox="0 0 512 512" width="512" xmlns="http://www.w3.org/2000/svg"><g><path d="m380.61 49.128c-62.96 0-114 51.04-114 114s51.04 114 114 114 114-51.04 114-114-51.04-114-114-114zm0 153.62c-21.88 0-39.62-17.74-39.62-39.62s17.74-39.62 39.62-39.62 39.62 17.74 39.62 39.62-17.74 39.62-39.62 39.62z" fill="#e07f5d"/><g><path d="m380.61 49.128c-5.085 0-10.091.338-15 .983 55.87 7.345 99 55.142 99 113.017s-43.13 105.672-99 113.017c4.909.645 9.915.983 15 .983 62.96 0 114-51.04 114-114s-51.04-114-114-114z" fill="#d06d4a"/><path d="m380.61 49.128c-54.834 0-100.62 38.717-111.527 90.305h79.772c7.225-9.667 18.76-15.925 31.755-15.925s24.53 6.258 31.755 15.925h79.772c-10.907-51.587-56.693-90.305-111.527-90.305z" fill="#d06d4a"/><g><path d="m380.61 49.128c-5.085 0-10.091.336-15 .981 48.025 6.313 86.632 42.52 96.527 89.323h30c-10.907-51.586-56.693-90.304-111.527-90.304z" fill="#b85f3f"/></g></g><path d="m131.39 49.128c-62.96 0-114 51.04-114 114s51.04 114 114 114 114-51.04 114-114-51.04-114-114-114zm0 153.62c-21.88 0-39.62-17.74-39.62-39.62s17.74-39.62 39.62-39.62 39.62 17.74 39.62 39.62-17.74 39.62-39.62 39.62z" fill="#e07f5d"/><g><path d="m131.39 49.128c-5.085 0-10.091.338-15 .983 55.87 7.345 99 55.142 99 113.017s-43.13 105.672-99 113.017c4.909.645 9.915.983 15 .983 62.96 0 114-51.04 114-114s-51.04-114-114-114z" fill="#d06d4a"/><path d="m131.39 49.128c-54.834 0-100.62 38.717-111.527 90.305h79.772c7.225-9.667 18.76-15.925 31.755-15.925s24.53 6.258 31.755 15.925h79.772c-10.907-51.587-56.693-90.305-111.527-90.305z" fill="#d06d4a"/><g><path d="m131.39 49.128c-5.085 0-10.091.336-15 .981 48.025 6.313 86.632 42.52 96.527 89.323h30c-10.907-51.586-56.693-90.304-111.527-90.304z" fill="#b85f3f"/></g></g><path d="m486.5 259.128h-461c-9.941 0-18-8.059-18-18v-8c0-2.209 1.791-4 4-4h489c2.209 0 4 1.791 4 4v8c0 9.942-8.059 18-18 18z" fill="#e0925b"/><path d="m500.5 229.128h-30c2.209 0 4 1.791 4 4v8c0 9.941-8.059 18-18 18h30c9.941 0 18-8.059 18-18v-8c0-2.209-1.791-4-4-4z" fill="#d48145"/><path d="m33 259.128v62.731c0 13.956 11.313 25.269 25.269 25.269h395.461c13.956 0 25.269-11.313 25.269-25.269v-62.731z" fill="#e49a6b"/><path d="m449 259.128v62.731c0 13.956-11.313 25.269-25.269 25.269h30c13.956 0 25.269-11.313 25.269-25.269v-62.731z" fill="#e0925b"/><path d="m405.79 351.043c0 9.993-8.059 18.094-18 18.094h-93.239c-22.185 0-44.049 5.333-63.767 15.553l-107.808 55.882c-8.779 4.551-18.235 7.651-28.001 9.182l-85.165 13.35c-1.213.19-2.309-.749-2.309-1.979v-86.988c0-1.012.754-1.865 1.757-1.988l48.662-5.972c8.861-1.087 17.47-3.694 25.449-7.705l34.973-17.58c10.448-5.252 19.869-12.352 27.813-20.961l58.271-63.151c5.995-6.497 15.876-7.52 23.071-2.39 7.993 5.699 9.813 16.865 4.047 24.831l-31.405 43.385c-3.116 4.304-.057 10.344 5.239 10.344h182.412c9.941-.001 18 8.1 18 18.093z" fill="#ffd8ca"/><g fill="#ffbead"><path d="m201.543 279.22-31.405 43.386c-3.116 4.304-.057 10.344 5.239 10.344h30c-5.296 0-8.354-6.04-5.239-10.344l31.405-43.386c5.766-7.965 3.946-19.131-4.047-24.831-7.202-5.135-17.074-4.109-23.079 2.398l-2.295 2.488c3.791 5.952 3.815 13.875-.579 19.945z"/><path d="m387.79 332.949h-30c9.941 0 18 8.101 18 18.094 0 9.993-8.059 18.094-18 18.094h30c9.941 0 18-8.101 18-18.094 0-9.993-8.059-18.094-18-18.094z"/><path d="m200.784 384.691-107.809 55.881c-8.78 4.551-18.231 7.651-27.991 9.181l-57.484 9.01v2.362c0 1.23 1.096 2.169 2.309 1.979l85.175-13.351c9.76-1.53 19.212-4.63 27.991-9.181l107.808-55.881c19.718-10.221 41.582-15.554 63.767-15.554h-30c-22.185 0-44.048 5.333-63.766 15.554z"/></g><g><path d="m318.247 92.611c-9.335-3.403-14.692 9.878-5.617 13.908l3.709 1.498c3.743 1.541 8.213-.267 9.763-4.146 1.551-3.841-.305-8.212-4.146-9.763z"/><path d="m347.61 94.914-2.88 2.775c-2.982 2.874-3.07 7.622-.196 10.604 2.877 2.985 7.625 3.068 10.605.196l2.88-2.775c6.912-7.138-3.026-17.44-10.409-10.8z"/><path d="m448.074 117.744c1.873 0 3.749-.697 5.204-2.1l2.88-2.775c6.911-7.139-3.026-17.44-10.409-10.801l-2.88 2.775c-2.982 2.874-3.07 7.622-.196 10.604 1.472 1.528 3.435 2.297 5.401 2.297z"/><path d="m401.033 74.331-3.571 1.803c-3.698 1.867-5.182 6.378-3.315 10.075 1.875 3.735 6.456 5.165 10.075 3.315l3.571-1.803c8.71-4.784 2.252-17.554-6.76-13.39z"/><path d="m366.432 82.284c3.425-2.33 4.312-6.995 1.983-10.42l-2.25-3.308c-2.329-3.424-6.994-4.314-10.419-1.982-3.425 2.33-4.312 6.995-1.983 10.42l2.25 3.308c2.343 3.449 7.037 4.294 10.419 1.982z"/><path d="m414.839 114.728c2.345 3.451 7.038 4.295 10.42 1.981 3.424-2.33 4.312-6.995 1.981-10.419l-2.25-3.307c-5.871-8.017-17.702.043-12.401 8.438z"/><path d="m63.409 106.519 3.709 1.498c3.743 1.541 8.213-.267 9.763-4.146 1.551-3.841-.305-8.212-4.146-9.763l-3.709-1.498c-3.841-1.554-8.212.305-9.763 4.146s.305 8.212 4.146 9.763z"/><path d="m100.716 110.589c1.873 0 3.749-.697 5.204-2.1l2.88-2.775c6.911-7.139-3.026-17.44-10.409-10.801l-2.88 2.775c-2.982 2.874-3.07 7.622-.196 10.604 1.472 1.529 3.435 2.297 5.401 2.297z"/><path d="m198.854 117.744c1.873 0 3.748-.697 5.203-2.1l2.88-2.775c2.982-2.874 3.071-7.621.197-10.604-2.874-2.981-7.622-3.07-10.605-.196l-2.88 2.775c-2.982 2.874-3.071 7.621-.197 10.604 1.472 1.527 3.436 2.296 5.402 2.296z"/><path d="m151.628 90.331c1.137 0 2.291-.26 3.374-.807l3.571-1.803c3.698-1.867 5.182-6.378 3.315-10.075-1.867-3.698-6.378-5.18-10.075-3.315l-3.571 1.803c-3.698 1.867-5.182 6.378-3.315 10.075 1.32 2.615 3.96 4.122 6.701 4.122z"/><path d="m106.792 80.301c2.344 3.449 7.038 4.295 10.419 1.982 3.425-2.33 4.312-6.995 1.983-10.42l-2.25-3.308c-2.33-3.424-6.994-4.314-10.419-1.982-3.425 2.33-4.312 6.995-1.983 10.42z"/><path d="m163.369 111.421 2.25 3.307c2.345 3.451 7.038 4.295 10.42 1.981 3.424-2.33 4.312-6.995 1.981-10.419l-2.25-3.307c-5.87-8.017-17.701.044-12.401 8.438z"/><path d="m500.5 221.628h-13.392c27.31-47.964 16.14-112.966-25.641-149.189-3.091-2.756-7.832-2.486-10.589.604-2.758 3.091-2.488 7.832.603 10.59 14.671 13.089 25.282 29.865 30.939 48.301h-65.494c-.334 0-.66.029-.982.071-18.104-21.19-52.536-21.195-70.647-.024-.27-.029-.543-.047-.821-.047h-65.701c17.016-59.302 88.007-92.974 145.534-65.957 9.195 3.764 15.07-9.287 6.162-13.676-106.203-47.139-211.814 67.315-156.356 169.327h-36.227c44.706-79.491-15.154-180.819-106.499-179.999-91.336-.818-151.213 100.509-106.491 179.999h-13.398c-6.341 0-11.5 5.159-11.5 11.5v8c0 14.061 11.439 25.5 25.5 25.5v12.643c.344 9.931 14.66 9.923 15 0v-12.643h144.631l-44.49 48.216c-7.357 7.974-15.994 14.483-25.669 19.347l-10.817 5.438h-45.885c-9.798 0-17.77-7.972-17.77-17.77v-7.611c-.344-9.931-14.66-9.923-15 0v7.611c0 18.069 14.701 32.77 32.77 32.77h15.215c-5.299 2.024-10.815 3.409-16.48 4.104l-48.662 5.972c-4.756.583-8.343 4.637-8.343 9.431v86.988c0 2.782 1.212 5.416 3.327 7.224 2.112 1.812 4.925 2.596 7.644 2.165l85.165-13.35c10.585-1.659 20.777-5.001 30.292-9.934l63.614-32.974c8.658-4.874 2.064-17.581-6.903-13.316l-63.614 32.974c-8.076 4.186-16.727 7.022-25.711 8.432l-78.814 12.354v-75.699l43.832-5.379c9.742-1.195 19.13-4.037 27.904-8.447l34.973-17.58c11.292-5.677 21.372-13.272 29.957-22.577l58.271-63.15c3.421-3.709 9.099-4.297 13.205-1.37 2.222 1.585 3.69 3.948 4.134 6.657.446 2.72-.196 5.443-1.808 7.67l-31.405 43.385c-3.107 4.293-3.541 9.893-1.129 14.614 2.402 4.705 7.17 7.628 12.443 7.628h182.413c13.933.582 13.922 20.611 0 21.188h-93.239c-23.282 0-46.526 5.669-67.218 16.395l-13.131 6.806c-3.678 1.906-5.114 6.433-3.208 10.11 1.907 3.677 6.432 5.113 10.11 3.208l13.131-6.807c18.569-9.624 39.426-14.712 60.316-14.712h93.239c12.848 0 23.502-9.588 25.245-22.009h40.695c18.069 0 32.77-14.7 32.77-32.77v-55.23c14.061 0 25.5-11.439 25.5-25.5v-8c0-6.342-5.159-11.502-11.5-11.502zm-119.89-90.62c17.711 0 32.12 14.409 32.12 32.12-1.764 42.61-62.482 42.598-64.24 0 0-17.711 14.409-32.12 32.12-32.12zm-106.5 32.12c0-5.505.42-10.913 1.229-16.195h61.019c-11.487 29.982 12.044 63.785 44.252 63.314 32.202.473 55.745-33.337 44.252-63.314h60.999c4.06 25.899-1.815 52.937-16.263 74.695h-177.988c-11.445-17.376-17.5-37.59-17.5-58.5zm-142.72-106.5c47.874 0 88.467 31.754 101.835 75.305h-65.519c-.334 0-.66.029-.982.071-18.103-21.19-52.537-21.194-70.647-.024-.27-.029-.543-.047-.821-.047h-65.701c13.368-43.551 53.961-75.305 101.835-75.305zm0 74.38c17.711 0 32.12 14.409 32.12 32.12-1.764 42.611-62.482 42.598-64.24 0 0-17.711 14.409-32.12 32.12-32.12zm-106.5 32.12c0-5.505.42-10.913 1.229-16.195h61.019c-11.487 29.982 12.044 63.785 44.253 63.314 32.202.473 55.744-33.338 44.251-63.314h61.019c4.022 25.86-1.832 52.961-16.282 74.695h-177.98c-11.449-17.378-17.509-37.573-17.509-58.5zm446.61 158.731c0 9.798-7.972 17.77-17.77 17.77h-43.126c-4.188-8.397-12.838-14.179-22.813-14.179h-180.453l30.28-41.832c3.597-4.968 5.227-10.938 4.692-16.989h229.19zm25.5-80.731c0 5.79-4.71 10.5-10.5 10.5h-250.831c-1.146-1.227-2.422-2.349-3.82-3.346-10.217-7.285-24.331-5.842-32.872 3.346h-173.477c-5.79 0-10.5-4.71-10.5-10.5v-4.5h482z"/></g></g></svg>