<svg height="512" viewBox="-36 0 512 512" width="512" xmlns="http://www.w3.org/2000/svg"><path d="m305 512h-250c-7.332031 0-13.589844-5.300781-14.796875-12.535156l-32.636719-195.832032c-5.019531-30.117187-7.566406-60.871093-7.566406-91.40625v-37.226562c0-8.285156 6.714844-15 15-15h330c8.285156 0 15 6.714844 15 15v37.226562c0 30.53125-2.546875 61.285157-7.5625 91.40625l-32.640625 195.832032c-1.207031 7.234375-7.464844 12.535156-14.796875 12.535156zm0 0" fill="#ff4964"/><path d="m395 430h-76.332031c-8.285157 0-15-6.714844-15-15s6.714843-15 15-15h76.332031c8.269531 0 15-6.730469 15-15v-140c0-8.269531-6.730469-15-15-15h-50.015625c-8.285156 0-15-6.714844-15-15s6.714844-15 15-15h50.015625c24.8125 0 45 20.1875 45 45v140c0 24.8125-20.1875 45-45 45zm0 0" fill="#b8001c"/><path d="m180 130c-8.285156 0-15-6.714844-15-15 0-13.785156-11.214844-25-25-25h-75c-24.8125 0-45-20.1875-45-45s20.1875-45 45-45h185c8.285156 0 15 6.714844 15 15s-6.714844 15-15 15h-185c-8.269531 0-15 6.730469-15 15s6.730469 15 15 15h75c30.328125 0 55 24.671875 55 55 0 8.285156-6.714844 15-15 15zm0 0" fill="#a6632a"/><path d="m345 160h-165v352h125c7.332031 0 13.589844-5.300781 14.796875-12.535156l32.640625-195.832032c5.019531-30.121093 7.5625-60.875 7.5625-91.40625v-37.226562c0-8.285156-6.714844-15-15-15zm0 0" fill="#f72141"/><path d="m135 272c-8.285156 0-15-6.714844-15-15v-82c0-8.285156 6.714844-15 15-15s15 6.714844 15 15v82c0 8.285156-6.714844 15-15 15zm0 0" fill="#d9ecfa"/><path d="m135 160v112c8.285156 0 15-6.714844 15-15v-82c0-8.285156-6.714844-15-15-15zm0 0" fill="#c1daee"/><path d="m175 392h-80c-8.285156 0-15-6.714844-15-15v-120c0-8.285156 6.714844-15 15-15h80c8.285156 0 15 6.714844 15 15v120c0 8.285156-6.714844 15-15 15zm0 0" fill="#ffd55f"/><path d="m175 242h-40v150h40c8.285156 0 15-6.714844 15-15v-120c0-8.285156-6.714844-15-15-15zm0 0" fill="#ffc32a"/><g fill="#90511a"><path d="m195 115c0-14.578125-5.710938-27.839844-15-37.691406v52.691406c8.285156 0 15-6.714844 15-15zm0 0"/><path d="m250 0h-70v30h70c8.285156 0 15-6.714844 15-15s-6.714844-15-15-15zm0 0"/></g></svg>