<svg height="512" viewBox="-81 0 512 512" width="512" xmlns="http://www.w3.org/2000/svg"><path d="m290 115c0 63.511719-51.488281 115-115 115s-115-51.488281-115-115 51.488281-115 115-115 115 51.488281 115 115zm0 0" fill="#ffd55f"/><path d="m290 115c0-63.511719-51.488281-115-115-115v230c63.511719 0 115-51.488281 115-115zm0 0" fill="#ffc32a"/><path d="m350 202c0 63.511719-51.488281 115-115 115s-115-51.488281-115-115 51.488281-115 115-115 115 51.488281 115 115zm0 0" fill="#a6632a"/><path d="m350 202c0-63.511719-51.488281-115-115-115v230c63.511719 0 115-51.488281 115-115zm0 0" fill="#90511a"/><path d="m230 202c0 63.511719-51.488281 115-115 115s-115-51.488281-115-115 51.488281-115 115-115 115 51.488281 115 115zm0 0" fill="#ff92a2"/><path d="m230 202c0-63.511719-51.488281-115-115-115v230c63.511719 0 115-51.488281 115-115zm0 0" fill="#ff6d83"/><path d="m175 449.054688c-8.3125 0-15.054688-6.742188-15.054688-15.054688v-62c0-8.3125 6.738282-15.054688 15.054688-15.054688s15.054688 6.742188 15.054688 15.054688v62c0 8.3125-6.742188 15.054688-15.054688 15.054688zm0 0" fill="#abccde"/><path d="m190.054688 434v-62c0-8.3125-6.738282-15.054688-15.054688-15.054688v92.109376c8.3125 0 15.054688-6.742188 15.054688-15.054688zm0 0" fill="#8fbbd3"/><path d="m175 377c-96.496094 0-175-78.503906-175-175 0-8.285156 6.714844-15 15-15h320c8.285156 0 15 6.714844 15 15 0 96.496094-78.503906 175-175 175zm0 0" fill="#d9ecfa"/><path d="m335 187h-160v190c96.496094 0 175-78.503906 175-175 0-8.285156-6.714844-15-15-15zm0 0" fill="#c1daee"/><path d="m275 512h-200c-8.3125 0-15.054688-6.738281-15.054688-15.054688v-40c0-7.011718 4.84375-13.097656 11.679688-14.671874l100-23c2.222656-.507813 4.527344-.507813 6.75 0l100 23c6.835938 1.574218 11.679688 7.660156 11.679688 14.671874v40c0 8.316407-6.742188 15.054688-15.054688 15.054688zm0 0" fill="#d9ecfa"/><path d="m275 512c8.3125 0 15.054688-6.738281 15.054688-15.054688v-40c0-7.011718-4.84375-13.097656-11.679688-14.671874l-100-23c-1.109375-.253907-2.242188-.382813-3.375-.382813v93.109375zm0 0" fill="#c1daee"/></svg>