<svg height="512" viewBox="0 0 512 512" width="512" xmlns="http://www.w3.org/2000/svg"><g id="Flat"><path d="m176 288h160a16 16 0 0 1 16 16v72a0 0 0 0 1 0 0h-192a0 0 0 0 1 0 0v-72a16 16 0 0 1 16-16z" fill="#c7c934" transform="matrix(-1 0 0 -1 512 664)"/><path d="m160 200h192v88h-192z" fill="#ffa912" transform="matrix(-1 0 0 -1 512 488)"/><path d="m160 112h192v88h-192z" fill="#f77c00" transform="matrix(-1 0 0 -1 512 312)"/><path d="m160 24h192a0 0 0 0 1 0 0v72a16 16 0 0 1 -16 16h-160a16 16 0 0 1 -16-16v-72a0 0 0 0 1 0 0z" fill="#e64c3f" transform="matrix(-1 0 0 -1 512 136)"/><path d="m160 288h128a0 0 0 0 1 0 0v72a16 16 0 0 1 -16 16h-96a16 16 0 0 1 -16-16v-72a0 0 0 0 1 0 0z" fill="#d0d24b"/><path d="m160 200h128v88h-128z" fill="#ffb531"/><path d="m160 112h128v88h-128z" fill="#f98500"/><path d="m176 24h96a16 16 0 0 1 16 16v72a0 0 0 0 1 0 0h-128a0 0 0 0 1 0 0v-72a16 16 0 0 1 16-16z" fill="#f35244"/><path d="m232 376h48a0 0 0 0 1 0 0v88a24 24 0 0 1 -24 24 24 24 0 0 1 -24-24v-88a0 0 0 0 1 0 0z" fill="#ffb531"/><path d="m232 376h48v24h-48z" fill="#ffa912"/></g></svg>