<?xml version="1.0" encoding="iso-8859-1"?>
<!-- Generator: Adobe Illustrator 19.0.0, SVG Export Plug-In . SVG Version: 6.00 Build 0)  -->
<svg version="1.1" id="Capa_1" xmlns="http://www.w3.org/2000/svg" xmlns:xlink="http://www.w3.org/1999/xlink" x="0px" y="0px"
	 viewBox="0 0 511.998 511.998" style="enable-background:new 0 0 511.998 511.998;" xml:space="preserve">
<polygon style="fill:#F0DBC2;" points="460.765,281.617 392.504,503.465 119.46,503.465 51.2,281.617 "/>
<path style="fill:#EBD3B7;" d="M105.211,457.15l14.249,46.315h273.044l68.261-221.848h-39.173
	C321.112,411.56,173.37,447.363,105.211,457.15z"/>
<path style="fill:#F09E3E;" d="M418.102,145.095l-3.089-12.355C396.771,59.76,331.206,8.573,255.982,8.573l0,0
	c-75.224,0-140.788,51.196-159.031,124.167l-3.089,12.355H76.797c-37.697,0-68.261,30.564-68.261,68.261l0,0
	c0,37.697,30.564,68.261,68.261,68.261h358.37c37.697,0,68.261-30.564,68.261-68.261l0,0c0-37.697-30.564-68.261-68.261-68.261
	L418.102,145.095L418.102,145.095z"/>
<path style="fill:#F09235;" d="M435.168,145.095h-17.065l-3.089-12.355c-6.553-26.229-19.506-50.419-37.697-70.411
	C315.881,219.397,132.737,255.268,29.74,262.726c12.662,12.133,29.523,18.9,47.057,18.891h358.37
	c37.697,0,68.261-30.564,68.261-68.261S472.873,145.095,435.168,145.095z"/>
<g>
	<circle style="fill:#BF7341;" cx="127.985" cy="204.781" r="25.598"/>
	<circle style="fill:#BF7341;" cx="213.311" cy="102.475" r="25.598"/>
	<circle style="fill:#BF7341;" cx="375.431" cy="196.248" r="25.598"/>
</g>
<g>
	<rect x="247.441" y="281.66" style="fill:#E6CCAF;" width="17.065" height="221.848"/>
	<polygon style="fill:#E6CCAF;" points="180.042,281.617 196.356,503.465 213.464,503.465 197.15,281.617 	"/>
	<polygon style="fill:#E6CCAF;" points="110.552,281.617 153.804,503.465 171.185,503.465 127.933,281.617 	"/>
	<polygon style="fill:#E6CCAF;" points="316.769,281.617 299.158,503.465 316.283,503.465 333.885,281.617 	"/>
	<polygon style="fill:#E6CCAF;" points="383.98,281.617 340.507,503.465 357.888,503.465 401.37,281.617 	"/>
</g>
<path d="M435.168,136.562h-10.41l-1.476-5.888C400.192,38.275,306.572-17.904,214.173,5.186
	C152.379,20.63,104.127,68.882,88.683,130.675l-1.476,5.888h-10.41c-42.373-0.043-76.759,34.276-76.794,76.649
	c-0.026,29.292,16.622,56.042,42.919,68.952c-0.034,0.657,0.009,1.314,0.128,1.962l68.261,221.848
	c1.101,3.584,4.411,6.024,8.157,6.024h273.044c3.746,0,7.056-2.44,8.157-6.024l68.261-221.848c0.119-0.648,0.162-1.305,0.128-1.962
	c38.038-18.669,53.738-64.643,35.069-102.682C491.218,153.184,464.46,136.528,435.168,136.562z M62.753,290.15h49.66l39.378,204.783
	h-26.033L62.753,290.15z M382.171,290.15l-39.378,204.783h-26.4l15.751-204.783H382.171z M299.277,494.933h-34.762V290.15h50.513
	L299.277,494.933z M247.45,494.933h-34.762L196.937,290.15h50.513V494.933z M179.82,290.15l15.751,204.783h-26.4L129.794,290.15
	H179.82z M449.212,290.15l-63.005,204.783h-26.033l39.378-204.783C399.552,290.15,449.212,290.15,449.212,290.15z M435.168,273.084
	H76.797c-32.987,0-59.728-26.741-59.728-59.728s26.741-59.728,59.728-59.728h17.065c3.916,0,7.33-2.662,8.277-6.459l3.089-12.355
	C126.048,51.552,210.418,0.936,293.68,21.756c55.667,13.917,99.141,57.39,113.057,113.057l3.089,12.355
	c0.947,3.797,4.36,6.459,8.277,6.459h17.065c32.987,0,59.728,26.741,59.728,59.728S468.155,273.084,435.168,273.084z"/>
<path d="M127.993,170.693c-18.849,0-34.13,15.282-34.13,34.13s15.282,34.13,34.13,34.13s34.13-15.282,34.13-34.13
	S146.85,170.693,127.993,170.693z M127.993,221.889c-9.429,0-17.065-7.637-17.065-17.065s7.637-17.065,17.065-17.065
	s17.065,7.637,17.065,17.065S137.422,221.889,127.993,221.889z"/>
<path d="M213.319,68.301c-18.849,0-34.13,15.282-34.13,34.13s15.282,34.131,34.13,34.131s34.13-15.282,34.13-34.13
	S232.176,68.301,213.319,68.301z M213.319,119.497c-9.429,0-17.065-7.637-17.065-17.065s7.637-17.065,17.065-17.065
	s17.065,7.637,17.065,17.065S222.748,119.497,213.319,119.497z"/>
<path d="M375.439,162.16c-18.849,0-34.13,15.282-34.13,34.13s15.282,34.13,34.13,34.13s34.13-15.282,34.13-34.13
	S394.296,162.16,375.439,162.16z M375.439,213.356c-9.429,0-17.065-7.637-17.065-17.065s7.637-17.065,17.065-17.065
	c9.429,0,17.065,7.637,17.065,17.065S384.868,213.356,375.439,213.356z"/>
<g>
</g>
<g>
</g>
<g>
</g>
<g>
</g>
<g>
</g>
<g>
</g>
<g>
</g>
<g>
</g>
<g>
</g>
<g>
</g>
<g>
</g>
<g>
</g>
<g>
</g>
<g>
</g>
<g>
</g>
</svg>
