<svg height="512" viewBox="0 -6 512.00099 512" width="512" xmlns="http://www.w3.org/2000/svg"><path d="m497 45h-445c-8.285156 0-15-6.714844-15-15s6.714844-15 15-15h445c8.285156 0 15 6.714844 15 15s-6.714844 15-15 15zm0 0" fill="#ff4964"/><path d="m497.015625 140c-.394531 0-.792969-.015625-1.191406-.046875l-445-35c-8.257813-.648437-14.429688-7.871094-13.777344-16.128906.648437-8.257813 7.902344-14.433594 16.128906-13.777344l445 35c8.257813.648437 14.429688 7.871094 13.777344 16.128906-.617187 7.859375-7.1875 13.824219-14.9375 13.824219zm0 0" fill="#ff4964"/><path d="m497 15h-241v30h241c8.285156 0 15-6.714844 15-15s-6.714844-15-15-15zm0 0" fill="#f72141"/><path d="m498.175781 110.046875-242.175781-19.046875v30.089844l239.824219 18.863281c.398437.035156.796875.046875 1.191406.046875 7.75 0 14.320313-5.964844 14.9375-13.824219.648437-8.257812-5.519531-15.480469-13.777344-16.128906zm0 0" fill="#f72141"/><g fill="#ffd55f"><path d="m97 210c-8.285156 0-15-6.714844-15-15v-180c0-8.285156 6.714844-15 15-15s15 6.714844 15 15v180c0 8.285156-6.714844 15-15 15zm0 0"/><path d="m157 210c-8.285156 0-15-6.714844-15-15v-180c0-8.285156 6.714844-15 15-15s15 6.714844 15 15v180c0 8.285156-6.714844 15-15 15zm0 0"/><path d="m217 210c-8.285156 0-15-6.714844-15-15v-180c0-8.285156 6.714844-15 15-15s15 6.714844 15 15v180c0 8.285156-6.714844 15-15 15zm0 0"/></g><path d="m372.507812 500h-233.015624c-8.28125 0-15-6.714844-15-15v-60c0-8.285156 6.71875-15 15-15h233.015624c8.285157 0 15 6.714844 15 15v60c0 8.285156-6.714843 15-15 15zm0 0" fill="#424278"/><path d="m372.507812 410h-116.507812v90h116.507812c8.28125 0 15-6.714844 15-15v-60c0-8.285156-6.714843-15-15-15zm0 0" fill="#2d2d66"/><path d="m372.507812 440h-233.015624c-2.539063 0-5.039063-.644531-7.261719-1.875-81.5625-45.132812-132.230469-131.011719-132.230469-224.125v-19c0-8.285156 6.714844-15 15-15h482c8.285156 0 15 6.714844 15 15v19c0 93.113281-50.667969 178.992188-132.230469 224.125-2.222656 1.230469-4.722656 1.875-7.261719 1.875zm0 0" fill="#52529c"/><path d="m497 180h-241v260h116.507812c2.539063 0 5.039063-.644531 7.261719-1.875 81.5625-45.132812 132.230469-131.011719 132.230469-224.125v-19c0-8.285156-6.714844-15-15-15zm0 0" fill="#424278"/></svg>