<svg width="364" height="480" viewBox="0 0 364 480" fill="none" xmlns="http://www.w3.org/2000/svg">
<path fill-rule="evenodd" clip-rule="evenodd" d="M166.181 84.5836C173.455 88.9713 180.602 91.0912 183.957 90.2258C192.37 88.0557 193.144 57.2571 186.634 45.1153C180.125 32.9735 146.661 27.6814 144.974 51.7381C144.388 60.0874 147.892 67.5387 153.068 73.6188L143.787 116.909H170.747L166.181 84.5836Z" fill="#B28B67"/>
<path fill-rule="evenodd" clip-rule="evenodd" d="M175.985 31.8914C172.301 30.7673 166.954 30.3861 164.704 30.644C165.984 27.5758 166.492 24.1574 166.078 20.829C165.675 17.5949 164.231 14.8412 162.896 11.9556C162.28 10.6255 161.582 9.30265 160.542 8.2853C159.482 7.24882 158.141 6.56466 156.735 6.23826C155.295 5.90415 153.79 5.93197 152.348 6.23518C151.711 6.36929 151.138 6.66108 150.513 6.82328C149.873 6.98947 149.562 6.58831 149.097 6.18516C147.977 5.21374 146.334 4.7342 144.917 4.56257C143.327 4.3701 141.676 4.61014 140.16 5.13327C138.684 5.64254 137.266 6.46951 136.198 7.67427C135.723 8.21054 135.292 8.82093 135.011 9.49485C134.896 9.77141 134.877 9.93525 134.602 10.0366C134.347 10.1303 134.048 10.1331 133.785 10.2223C131.24 11.085 129.063 13.053 127.879 15.5799C127.187 17.054 126.86 19.6495 126.949 22.5586C127.039 25.4677 129.664 33.0584 132.119 35.8271C134.311 38.2984 137.532 39.9292 140.64 40.6431C138.577 43.0032 137.203 45.9524 136.188 48.9518C135.085 52.21 134.402 55.5953 134.15 59.0447C133.91 62.3219 133.888 65.7877 134.656 68.995C135.374 71.9943 136.91 74.4548 139.474 76.0158C140.649 76.7308 141.912 77.268 143.183 77.759C144.436 78.2428 145.692 78.7132 147.004 78.9847C149.488 79.4983 152.349 79.4101 154.262 77.4321C154.951 76.7191 155.709 75.823 156.212 74.9519C156.393 74.6387 156.502 74.4338 156.283 74.1276C156.019 73.7609 155.594 73.4799 155.255 73.193C153.327 71.5573 152.134 69.3736 151.833 66.7785C151.527 64.1454 152.234 60.7468 154.792 59.5977C157.95 58.1792 161.428 59.8074 164.235 61.3251C165.427 57.1122 167.877 53.3189 171.717 51.3864C175.965 49.2484 180.84 48.9982 185.205 47.1639C186.343 46.6859 187.502 46.1433 188.339 45.1693C188.689 44.7623 189.1 44.2342 189.24 43.6959C189.423 42.9887 188.967 42.3958 188.615 41.8445C186.749 38.9213 179.669 33.0155 175.985 31.8914Z" fill="#191847"/>
<path fill-rule="evenodd" clip-rule="evenodd" d="M141.54 406.932C189.311 406.932 228.037 369.941 228.037 324.309C228.037 278.678 189.311 241.686 141.54 241.686C93.7692 241.686 55.0433 278.678 55.0433 324.309C55.0433 369.941 93.7692 406.932 141.54 406.932Z" fill="#C5CFD6"/>
<path fill-rule="evenodd" clip-rule="evenodd" d="M276.015 319.903C280.194 334.548 290.602 362.306 304.995 394.184L318.672 390.191C306.707 316.837 296.749 268.273 291.045 253.492C287.276 243.726 258.764 244.87 262.044 264.52C263.419 272.761 268.862 294.826 276.015 319.903ZM219.8 267.947C197.495 272.571 151.25 288.918 138.045 294.142C129.745 297.425 135.096 308.558 142.176 307.584C143.375 307.419 147.617 306.944 153.946 306.236C174.276 303.96 216.143 299.273 247.896 294.699C264.615 292.291 255.621 260.952 238.261 264.268C232.421 265.384 226.209 266.618 219.8 267.947Z" fill="#B28B67"/>
<path fill-rule="evenodd" clip-rule="evenodd" d="M291.919 245.214C289.639 237.767 185.982 211.335 185.982 211.335H177.487V219.256L248.916 255.644C248.821 256.818 248.879 258.059 249.11 259.368C248.594 286.343 260.131 306.495 271.554 326.447C279.023 339.494 286.444 352.456 290.413 367.185L316.656 363.267C315.891 361.31 314.683 352.489 313.03 340.428C308.862 310.016 301.873 259.007 292.067 245.512C292.032 245.465 291.998 245.418 291.962 245.371C291.95 245.319 291.935 245.266 291.919 245.214Z" fill="#1F28CF"/>
<path fill-rule="evenodd" clip-rule="evenodd" d="M183.421 277.254C176.886 275.945 170.867 274.776 165.717 273.872C132.451 268.034 122.751 250.214 128.486 211.335H189.778C199.79 214.213 251.822 236.049 278.819 247.662C296.687 255.349 291.054 283.059 280.935 290.27C280.881 290.713 280.698 291.013 280.374 291.148C242.011 307.059 209.297 305.872 188.29 305.109C179.491 304.79 172.746 304.545 168.5 305.662L161.847 284.66L183.421 277.254Z" fill="#2B44FF"/>
<path fill-rule="evenodd" clip-rule="evenodd" d="M145.043 292.783C145.004 291.613 144.017 290.678 142.853 290.797C140.471 291.041 136.744 291.543 134.965 292.411C132.234 293.744 127.438 297.212 127.438 297.212C128.983 300.383 155.213 354.198 155.213 354.198C155.213 354.198 163.634 352.838 161.886 347.766C160.139 342.695 159.067 339.299 159.067 339.299L157.953 306.926C157.934 306.363 157.454 305.927 156.892 305.962L151.808 306.282C151.808 306.282 147.583 302.86 146.233 300.09C145.377 298.334 145.118 294.993 145.043 292.783Z" fill="#E4E4E4"/>
<path fill-rule="evenodd" clip-rule="evenodd" d="M301.314 386.909C300.245 386.431 298.971 386.909 298.568 388.008C297.743 390.258 296.56 393.829 296.56 395.81C296.56 398.85 297.572 404.684 297.572 404.684C301.097 404.684 360.93 404.684 360.93 404.684C360.93 404.684 363.4 396.514 358.079 395.862C352.758 395.211 349.239 394.686 349.239 394.686L319.675 381.497C319.16 381.267 318.558 381.508 318.343 382.029L316.402 386.742C316.402 386.742 311.476 389.041 308.396 389.041C306.444 389.041 303.332 387.81 301.314 386.909Z" fill="#E4E4E4"/>
<path fill-rule="evenodd" clip-rule="evenodd" d="M272.61 222.166L236.778 195.835L228.857 215.429L264.34 230.154C274.375 241.95 279.987 246.868 281.175 244.907C282.176 243.253 281.393 241.705 280.672 240.279C280.111 239.169 279.586 238.132 279.972 237.177C280.854 234.997 287.595 235.227 293.982 235.718C300.37 236.21 298.509 233.365 296.968 231.961C290.448 228.055 282.329 224.79 272.61 222.166ZM84.6971 268.562C87.989 261.879 99.1993 196.744 99.1993 196.744L122.674 196.836C122.674 196.836 100.932 267.072 99.1993 271.369C96.9482 276.952 100.772 285.063 103.365 290.563C103.766 291.414 104.138 292.202 104.453 292.909C100.855 294.52 99.1269 292.573 97.3049 290.52C95.247 288.201 93.0695 285.748 87.9435 288.134C85.9631 289.056 84.0891 290.146 82.2582 291.211C75.9338 294.89 70.1239 298.27 62.2204 293.389C60.9674 292.616 59.5943 289.703 62.9119 287.426C71.1771 281.755 83.0878 271.829 84.6971 268.562Z" fill="#B28B67"/>
<path fill-rule="evenodd" clip-rule="evenodd" d="M165.911 98.1719L175.624 96.5046C211.665 127.66 226.468 187.514 270.644 219.22L260.011 232.41C183.373 222.914 164.378 149.907 165.911 98.1719Z" fill="#E87613"/>
<path fill-rule="evenodd" clip-rule="evenodd" d="M123.567 220.328C123.567 220.328 181.989 220.328 209.515 220.328C213.442 220.328 212.702 214.653 212.134 211.789C205.582 178.74 180.004 143.114 180.004 96.0683L155.213 92.178C134.707 125.18 127.616 165.813 123.567 220.328Z" fill="#DDE3E9"/>
<path fill-rule="evenodd" clip-rule="evenodd" d="M113.902 243.935C110.04 253.218 106.252 261.319 102.683 267.541H84.25C82.2669 203.375 106.543 154.001 126.86 124.23C122.349 123.907 118.277 122.018 115.703 117.371C106.642 101.009 109.914 92.0009 119.598 89.0398C124.923 87.4116 129.931 88.523 135.926 89.8534C140.832 90.942 146.398 92.1773 153.339 92.1781C153.342 92.1781 153.344 92.1781 153.346 92.1781C154.019 92.1781 154.631 92.2232 155.187 92.3095L163.413 92.7792C163.413 92.7792 196.814 206.058 181.837 243.935H113.902Z" fill="#FF9B21"/>
<path fill-rule="evenodd" clip-rule="evenodd" d="M113.902 243.934C118.971 231.754 124.168 217.536 129.169 202.853C131.031 219.023 134.131 235.263 139.293 243.934H113.902Z" fill="black" fill-opacity="0.1"/>
</svg>
