<svg height="479pt" viewBox="0 -67 479.99941 479" width="479pt" xmlns="http://www.w3.org/2000/svg"><path d="m236.6875 163.8125-41.375 41.375c-7.246094 7.242188-17.070312 11.3125-27.3125 11.3125-10.246094 0-20.070312-4.070312-27.3125-11.3125l-89.375-89.375c-7.242188-7.246094-11.3125-17.070312-11.3125-27.3125 0-10.246094 4.070312-20.070312 11.3125-27.3125l41.375-41.375c7.242188-7.246094 17.066406-11.3125 27.3125-11.3125 10.242188 0 20.066406 4.066406 27.3125 11.3125l89.375 89.375c7.242188 7.242188 11.3125 17.066406 11.3125 27.3125 0 10.242188-4.070312 20.066406-11.3125 27.3125zm0 0" fill="#eb972a"/><path d="m123.3125 163.8125 41.375 41.375c7.242188 7.242188 17.066406 11.3125 27.3125 11.3125 10.242188 0 20.066406-4.070312 27.3125-11.3125l89.375-89.375c7.242188-7.246094 11.3125-17.070312 11.3125-27.3125 0-10.246094-4.070312-20.070312-11.3125-27.3125l-41.375-41.375c-7.246094-7.246094-17.070312-11.3125-27.3125-11.3125-10.246094 0-20.070312 4.066406-27.3125 11.3125l-89.375 89.375c-7.242188 7.242188-11.3125 17.066406-11.3125 27.3125 0 10.242188 4.070312 20.066406 11.3125 27.3125zm0 0" fill="#e69112"/><path d="m243.3125 163.8125 41.375 41.375c7.242188 7.242188 17.066406 11.3125 27.3125 11.3125 10.242188 0 20.066406-4.070312 27.3125-11.3125l89.375-89.375c7.242188-7.246094 11.3125-17.070312 11.3125-27.3125 0-10.246094-4.070312-20.070312-11.3125-27.3125l-41.375-41.375c-7.246094-7.246094-17.070312-11.3125-27.3125-11.3125-10.246094 0-20.070312 4.066406-27.3125 11.3125l-89.375 89.375c-7.242188 7.242188-11.3125 17.066406-11.3125 27.3125 0 10.242188 4.070312 20.066406 11.3125 27.3125zm0 0" fill="#eb972a"/><path d="m275.3125 243.8125 41.375 41.375c7.242188 7.242188 17.066406 11.3125 27.3125 11.3125 10.242188 0 20.066406-4.070312 27.3125-11.3125l89.375-89.375c7.242188-7.246094 11.3125-17.070312 11.3125-27.3125 0-10.246094-4.070312-20.070312-11.3125-27.3125l-41.375-41.375c-7.246094-7.246094-17.070312-11.3125-27.3125-11.3125-10.246094 0-20.070312 4.066406-27.3125 11.3125l-89.375 89.375c-7.242188 7.242188-11.3125 17.066406-11.3125 27.3125 0 10.242188 4.070312 20.066406 11.3125 27.3125zm0 0" fill="#ffb433"/><path d="m356.6875 243.8125-41.375 41.375c-7.246094 7.242188-17.070312 11.3125-27.3125 11.3125-10.246094 0-20.070312-4.070312-27.3125-11.3125l-89.375-89.375c-7.242188-7.246094-11.3125-17.070312-11.3125-27.3125 0-10.246094 4.070312-20.070312 11.3125-27.3125l41.375-41.375c7.242188-7.246094 17.066406-11.3125 27.3125-11.3125 10.242188 0 20.066406 4.066406 27.3125 11.3125l89.375 89.375c7.242188 7.242188 11.3125 17.066406 11.3125 27.3125 0 10.242188-4.070312 20.066406-11.3125 27.3125zm0 0" fill="#f09e3e"/><path d="m204.6875 243.8125-41.375 41.375c-7.246094 7.242188-17.070312 11.3125-27.3125 11.3125-10.246094 0-20.070312-4.070312-27.3125-11.3125l-89.375-89.375c-7.242188-7.246094-11.3125-17.070312-11.3125-27.3125 0-10.246094 4.070312-20.070312 11.3125-27.3125l41.375-41.375c7.242188-7.246094 17.066406-11.3125 27.3125-11.3125 10.242188 0 20.066406 4.066406 27.3125 11.3125l89.375 89.375c7.242188 7.242188 11.3125 17.066406 11.3125 27.3125 0 10.242188-4.070312 20.066406-11.3125 27.3125zm0 0" fill="#ffb433"/><path d="m440 336.5h-400l-32-112h464zm0 0" fill="#f05d46"/><g fill="#fc3"><path d="m80 120.5h16v16h-16zm0 0"/><path d="m112 40.5h16v16h-16zm0 0"/><path d="m48 168.5h16v16h-16zm0 0"/><path d="m120 176.5h16v16h-16zm0 0"/><path d="m216 128.5h16v16h-16zm0 0"/><path d="m272 176.5h16v16h-16zm0 0"/><path d="m376 144.5h16v16h-16zm0 0"/><path d="m424 176.5h16v16h-16zm0 0"/><path d="m240 48.5h16v16h-16zm0 0"/><path d="m312 88.5h16v16h-16zm0 0"/><path d="m352 48.5h16v16h-16zm0 0"/></g><path d="m56.234375 282.433594 15.519531-3.882813 8.003906 32-15.519531 3.882813zm0 0" fill="#ff8b78"/><path d="m48.234375 250.441406 15.523437-3.882812 4 16.003906-15.519531 3.882812zm0 0" fill="#ff8b78"/><path d="m170.878906 336.5h269.121094l32-112h-139.839844zm0 0" fill="#e3523b"/><path d="m442.015625 111.203125c10.25-18.171875 7.109375-40.949219-7.671875-55.671875l-41.375-41.375c-18.207031-18.207031-47.730469-18.207031-65.9375 0l-27.03125 27.03125-27.03125-27.03125c-18.207031-18.207031-47.730469-18.207031-65.9375 0l-27.03125 27.03125-27.03125-27.03125c-18.207031-18.207031-47.730469-18.207031-65.9375 0l-41.375 41.375c-14.78125 14.722656-17.921875 37.5-7.671875 55.671875l-24.328125 24.328125c-18.207031 18.207031-18.207031 47.726562 0 65.9375l15.03125 15.03125h-20.6875c-2.511719 0-4.875 1.179688-6.386719 3.183594-1.507812 2.003906-1.992187 4.601562-1.300781 7.015625l32 112c.980469 3.433593 4.117188 5.796875 7.6875 5.800781h400c3.570312-.003906 6.707031-2.367188 7.6875-5.800781l32-112c.691406-2.414063.207031-5.011719-1.304688-7.015625-1.507812-2.003906-3.871093-3.183594-6.382812-3.183594h-20.6875l15.03125-15.03125c18.207031-18.210938 18.207031-47.730469 0-65.9375zm-103.671875-85.734375c12.121094-11.566406 31.191406-11.566406 43.3125 0l41.375 41.375c8.523438 8.449219 11.257812 21.132812 6.96875 32.34375l-5.03125-5.03125c-18.207031-18.207031-47.730469-18.207031-65.9375 0l-43.03125 43.03125-43.03125-43.03125c-.554688-.5625-1.160156-1.050781-1.738281-1.601562zm-114.34375 191.03125c.035156-12.375-4.882812-24.246094-13.65625-32.96875l-34.878906-34.878906c.511718-.601563.941406-1.25 1.503906-1.808594l41.375-41.375c12.121094-11.566406 31.191406-11.566406 43.3125 0l89.375 89.375c5.765625 5.730469 8.992188 13.527344 8.96875 21.65625zm-5.65625-191.03125c12.121094-11.566406 31.191406-11.566406 43.3125 0l27.03125 27.03125-31.34375 31.34375c-17.324219-6.941406-37.117188-2.882812-50.3125 10.3125l-41.375 41.375c-.558594.558594-.984375 1.222656-1.511719 1.800781l-28.800781-28.800781zm-170.34375 63.03125c-.027344-8.128906 3.203125-15.925781 8.96875-21.65625l41.375-41.375c12.121094-11.566406 31.191406-11.566406 43.3125 0l27.03125 27.03125-44.6875 44.6875-3.03125-3.03125c-18.207031-18.207031-47.730469-18.207031-65.9375 0l-5.03125 5.03125c-1.296875-3.414062-1.976562-7.035156-2-10.6875zm-23.03125 101.65625c-11.957031-11.960938-11.957031-31.351562 0-43.3125l41.375-41.375c12.121094-11.566406 31.191406-11.566406 43.3125 0l89.375 89.375c5.765625 5.730469 8.992188 13.527344 8.96875 21.65625h-156.6875zm409 138.34375h-387.9375l-27.421875-96h442.78125zm21.0625-138.34375-26.34375 26.34375h-52.6875c.035156-12.375-4.882812-24.246094-13.65625-32.96875l-35.03125-35.03125 43.03125-43.03125c12.121094-11.566406 31.191406-11.566406 43.3125 0l41.375 41.375c11.957031 11.960938 11.957031 31.351562 0 43.3125zm0 0"/><path d="m80 120.5h16v16h-16zm0 0"/><path d="m112 40.5h16v16h-16zm0 0"/><path d="m48 168.5h16v16h-16zm0 0"/><path d="m120 176.5h16v16h-16zm0 0"/><path d="m216 128.5h16v16h-16zm0 0"/><path d="m272 176.5h16v16h-16zm0 0"/><path d="m376 144.5h16v16h-16zm0 0"/><path d="m424 176.5h16v16h-16zm0 0"/><path d="m240 48.5h16v16h-16zm0 0"/><path d="m312 88.5h16v16h-16zm0 0"/><path d="m352 48.5h16v16h-16zm0 0"/><path d="m56.234375 282.433594 15.519531-3.882813 8.003906 32-15.519531 3.882813zm0 0"/><path d="m48.238281 250.4375 15.523438-3.878906 4 16-15.523438 3.882812zm0 0"/></svg>