<svg height="512" viewBox="0 0 512 512" width="512" xmlns="http://www.w3.org/2000/svg"><g><g><path d="m16 424h480a0 0 0 0 1 0 0v44a20 20 0 0 1 -20 20h-440a20 20 0 0 1 -20-20v-44a0 0 0 0 1 0 0z" fill="#d8d7da"/><path d="m288 448h-64l-8-24h80z" fill="#acabb1"/><g><path d="m496 136h-480v-48l240-72 240 72z" fill="#d8d7da"/><path d="m40 136h432v24h-432z" fill="#acabb1"/><path d="m16 400h480v24h-480z" fill="#3e3d42"/><path d="m56 160h48v216h-48z" fill="#787680"/><path d="m32 376h96v24h-96z" fill="#acabb1"/><path d="m408 160h48v216h-48z" fill="#787680"/><path d="m384 376h96v24h-96z" fill="#acabb1"/></g><circle cx="256" cy="280" fill="#ffda44" r="72"/></g><g><path d="m472 168a8 8 0 0 0 8-8v-16h16a8 8 0 0 0 8-8v-48a8 8 0 0 0 -5.7-7.66l-240-72a8.006 8.006 0 0 0 -4.6 0l-240 72a8 8 0 0 0 -5.7 7.66v48a8 8 0 0 0 8 8h16v16a8 8 0 0 0 8 8h8v200h-16a8 8 0 0 0 -8 8v16h-8a8 8 0 0 0 -8 8v68a28.031 28.031 0 0 0 28 28h440a28.031 28.031 0 0 0 28-28v-68a8 8 0 0 0 -8-8h-8v-16a8 8 0 0 0 -8-8h-16v-200zm-448-40v-34.05l232-69.6 232 69.6v34.05zm16 256h80v8h-80zm24-16v-200h32v200zm64 0h-16v-200h288v200h-16a8 8 0 0 0 -8 8v16h-240v-16a8 8 0 0 0 -8-8zm360 100a12.01 12.01 0 0 1 -12 12h-440a12.01 12.01 0 0 1 -12-12v-36h186.23l6.18 18.53a8 8 0 0 0 7.59 5.47h64a8 8 0 0 0 7.59-5.47l6.18-18.53h186.23zm-260.9-36h57.8l-2.67 8h-52.46zm260.9-24v8h-464v-8zm-16-24v8h-80v-8zm-56-16v-200h32v200zm-368-216v-8h416v8z"/><path d="m272 264a8 8 0 0 0 0-16h-8a8 8 0 0 0 -16 0h-8a8 8 0 0 0 -8 8v24a8 8 0 0 0 8 8h24v8h-24a8 8 0 0 0 0 16h8a8 8 0 0 0 16 0h8a8 8 0 0 0 8-8v-24a8 8 0 0 0 -8-8h-24v-8z"/><path d="m256 200a80 80 0 1 0 80 80 80.091 80.091 0 0 0 -80-80zm0 144a64 64 0 1 1 64-64 64.072 64.072 0 0 1 -64 64z"/></g></g></svg>