<svg height="512pt" viewBox="-52 0 512 512" width="512pt" xmlns="http://www.w3.org/2000/svg"><path d="m312 157c-8.285156 0-15-6.714844-15-15v-97c0-24.8125 20.1875-45 45-45h50c8.285156 0 15 6.714844 15 15s-6.714844 15-15 15h-50c-8.269531 0-15 6.730469-15 15v97c0 8.285156-6.714844 15-15 15zm0 0" fill="#2db124"/><path d="m330 512h-180c-7.554688 0-13.929688-5.617188-14.882812-13.113281l-45-355c-.539063-4.273438.78125-8.574219 3.628906-11.804688s6.945312-5.082031 11.253906-5.082031h270c4.308594 0 8.40625 1.851562 11.253906 5.082031s4.167969 7.53125 3.628906 11.804688l-45 355c-.953124 7.496093-7.328124 13.113281-14.882812 13.113281zm0 0" fill="#d9ecfa"/><path d="m375 127h-135v385h90c7.554688 0 13.929688-5.617188 14.882812-13.113281l45-355c.539063-4.273438-.78125-8.574219-3.628906-11.804688s-6.945312-5.082031-11.253906-5.082031zm0 0" fill="#c1daee"/><path d="m330 512h-180c-7.554688 0-13.929688-5.617188-14.882812-13.113281l-33.589844-265c-.542969-4.273438.78125-8.574219 3.628906-11.804688s6.945312-5.082031 11.253906-5.082031h247.183594c4.304688 0 8.402344 1.851562 11.253906 5.082031 2.847656 3.230469 4.167969 7.53125 3.625 11.804688l-33.589844 265c-.953124 7.496093-7.328124 13.113281-14.882812 13.113281zm0 0" fill="#ffaf00"/><path d="m363.589844 217h-123.589844v295h90c7.554688 0 13.929688-5.617188 14.882812-13.113281l33.589844-265c.542969-4.273438-.78125-8.574219-3.628906-11.804688s-6.945312-5.082031-11.253906-5.082031zm0 0" fill="#f39b00"/><path d="m105 37c-57.898438 0-105 47.101562-105 105s47.101562 105 105 105 105-47.101562 105-105-47.101562-105-105-105zm0 0" fill="#ffd55f"/><path d="m105 37v210c57.898438 0 105-47.101562 105-105s-47.101562-105-105-105zm0 0" fill="#ffc32a"/><path d="m195 127h-64.019531l32.011719-55.441406c4.140624-7.175782 1.683593-16.347656-5.492188-20.492188-7.175781-4.140625-16.347656-1.683594-20.488281 5.492188l-32.011719 55.441406-32.011719-55.441406c-4.140625-7.175782-13.3125-9.632813-20.488281-5.492188-7.175781 4.144532-9.632812 13.316406-5.488281 20.492188l32.007812 55.441406h-64.019531c-8.285156 0-15 6.714844-15 15s6.714844 15 15 15h64.019531l-32.011719 55.441406c-4.140624 7.175782-1.683593 16.347656 5.492188 20.492188 2.359375 1.363281 4.941406 2.011718 7.484375 2.011718 5.183594 0 10.226563-2.691406 13.003906-7.503906l32.011719-55.441406 32.011719 55.441406c2.777343 4.816406 7.816406 7.503906 13.003906 7.503906 2.542969 0 5.121094-.648437 7.484375-2.011718 7.175781-4.144532 9.632812-13.316406 5.488281-20.492188l-32.007812-55.441406h64.019531c8.285156 0 15-6.714844 15-15s-6.714844-15-15-15zm0 0" fill="#ffe3a3"/><path d="m137.011719 227.441406c2.777343 4.8125 7.816406 7.503906 13.003906 7.503906 2.28125 0 4.589844-.527343 6.75-1.621093.414063-.234375.828125-.476563 1.242187-.722657 6.769532-4.277343 9.023438-13.164062 4.980469-20.160156l-32.007812-55.441406h64.019531c8.285156 0 15-6.714844 15-15s-6.714844-15-15-15h-64.019531l32.011719-55.441406c4.039062-6.996094 1.785156-15.882813-4.980469-20.160156-.304688-.179688-.605469-.359376-.910157-.535157-7.113281-3.832031-16.027343-1.347656-20.089843 5.695313l-32.011719 55.441406v60zm0 0" fill="#ffd55f"/><path d="m105 247c-57.898438 0-105-47.101562-105-105s47.101562-105 105-105 105 47.101562 105 105-47.101562 105-105 105zm0-180c-41.355469 0-75 33.644531-75 75s33.644531 75 75 75 75-33.644531 75-75-33.644531-75-75-75zm0 0" fill="#ffaf00"/><path d="m105 37v30c41.355469 0 75 33.644531 75 75s-33.644531 75-75 75v30c57.898438 0 105-47.101562 105-105s-47.101562-105-105-105zm0 0" fill="#f39b00"/></svg>