<?xml version="1.0" encoding="iso-8859-1"?>
<!-- Generator: Adobe Illustrator 19.0.0, SVG Export Plug-In . SVG Version: 6.00 Build 0)  -->
<svg version="1.1" id="Capa_1" xmlns="http://www.w3.org/2000/svg" xmlns:xlink="http://www.w3.org/1999/xlink" x="0px" y="0px"
	 viewBox="0 0 511.999 511.999" style="enable-background:new 0 0 511.999 511.999;" xml:space="preserve">
<g>
	<g>
		<path d="M476.919,141.304l-0.379-0.655c-0.525-1.089-1.131-2.132-1.807-3.123L403.504,14.38C398.373,5.51,388.821,0,378.574,0
			H133.437c-10.263,0-19.823,5.523-24.952,14.417l-72.39,125.586c-0.652,1.132-1.122,2.316-1.454,3.519
			c-1.019,2.751-1.579,5.724-1.579,8.826v324.365c0,19.456,15.829,35.285,35.285,35.285h375.304
			c19.456,0,35.285-15.829,35.285-35.285V151.159c0-0.435-0.013-0.867-0.036-1.297C479.104,146.975,478.478,143.998,476.919,141.304
			z M271.518,30.011h106.358l56.032,96.873h-162.39V30.011z M134.136,30.011h107.371v96.873H78.296L134.136,30.011z
			 M448.925,476.714c0,2.908-2.366,5.274-5.274,5.274H68.347c-2.908,0-5.274-2.366-5.274-5.274V156.895h385.852V476.714z"/>
	</g>
</g>
<g>
	<g>
		<path d="M324.115,270.026c-5.859-5.859-15.361-5.859-21.221,0l-67.002,67.002l-25.764-25.764c-5.859-5.859-15.361-5.859-21.221,0
			c-5.86,5.859-5.86,15.361,0,21.221l36.376,36.374c2.93,2.93,6.771,4.396,10.61,4.396c3.839,0,7.681-1.466,10.61-4.396
			l77.612-77.612C329.975,285.387,329.975,275.886,324.115,270.026z"/>
	</g>
</g>
<g>
</g>
<g>
</g>
<g>
</g>
<g>
</g>
<g>
</g>
<g>
</g>
<g>
</g>
<g>
</g>
<g>
</g>
<g>
</g>
<g>
</g>
<g>
</g>
<g>
</g>
<g>
</g>
<g>
</g>
</svg>
