<svg id="Capa_1" enable-background="new 0 0 512.465 512.465" height="512" viewBox="0 0 512.465 512.465" width="512" xmlns="http://www.w3.org/2000/svg"><g><g><path d="m409.292 146.56c6.72-6.479 10.908-15.567 10.908-25.639 0-18.98-14.846-34.487-33.558-35.555.229-1.259.367-2.551.367-3.877 0-11.886-9.636-21.522-21.522-21.522-.476 0-.942.041-1.411.071-1.824-13.309-13.232-23.564-27.042-23.564-13.942 0-25.436 10.453-27.09 23.948-.091.738-.789 1.231-1.527 1.138-1.45-.184-2.926-.283-4.426-.283-.145 0-.287.009-.432.011.276-2.07.432-4.178.432-6.323 0-26.214-21.25-47.464-47.464-47.464-25.357 0-46.067 19.885-47.394 44.911-5.417-13.069-18.579-22.115-33.763-21.404-17.734.831-32.169 15.264-33.018 32.997-.277 5.772.869 11.245 3.098 16.119-1.77-.741-3.713-1.153-5.753-1.153-8.235 0-14.911 6.676-14.911 14.911 0 .144.018.284.022.428-1.549-.276-3.14-.428-4.768-.428-14.934 0-27.04 12.106-27.04 27.04 0 11.081 6.668 20.6 16.209 24.776l35.831 86.174h225.572z" fill="#fcd89f"/><path d="m409.292 146.56c6.72-6.479 10.908-15.567 10.908-25.639 0-18.98-14.846-34.487-33.558-35.555.229-1.259.367-2.551.367-3.877 0-11.886-9.636-21.522-21.522-21.522-.476 0-.942.041-1.411.071-1.824-13.309-13.232-23.564-27.042-23.564-13.942 0-25.436 10.453-27.09 23.948-.091.738-.789 1.231-1.527 1.138-1.45-.184-2.926-.283-4.426-.283-.145 0-.287.009-.432.011.276-2.07.432-4.178.432-6.323 0-26.214-21.25-47.464-47.464-47.464-25.357 0-46.067 19.885-47.394 44.911-5.417-13.069-18.579-22.115-33.763-21.404-17.734.831-32.169 15.264-33.018 32.997-.277 5.772.869 11.245 3.098 16.119-1.77-.741-3.713-1.153-5.753-1.153-8.235 0-14.911 6.676-14.911 14.911 0 .144.018.284.022.428-1.549-.276-3.14-.428-4.768-.428-14.934 0-27.04 12.106-27.04 27.04 0 11.081 6.668 20.6 16.209 24.776l35.831 86.174h225.572z" fill="#fcd89f"/><g><path d="m102.78 141.176c0-14.934 12.106-27.04 27.04-27.04.626 0 1.247.022 1.861.066 1.737.122 3.378-.78 4.191-2.32 2.319-4.398 7.533-12.656 13.605-12.656.34 0 .677.011 1.011.034 1.992.134 3.493-1.824 2.943-3.743-1.019-3.551-1.487-7.335-1.3-11.256.849-17.733 15.283-32.166 33.016-32.998 10.772-.506 20.526 3.9 27.219 11.168 2.721 2.955 7.556 1.908 8.799-1.912 6.188-19.018 24.059-32.764 45.141-32.764 14.752 0 27.939 6.729 36.645 17.286-4.563-21.449-23.615-37.541-46.425-37.541-25.357 0-46.067 19.885-47.394 44.911-5.417-13.069-18.579-22.116-33.765-21.404-17.734.832-32.168 15.265-33.017 32.998-.276 5.771.869 11.245 3.098 16.118-1.77-.741-3.713-1.153-5.753-1.153-8.235 0-14.911 6.676-14.911 14.911 0 .144.018.284.022.428-1.549-.276-3.14-.428-4.768-.428-14.934 0-27.04 12.106-27.04 27.04 0 8.379 3.808 15.861 9.792 20.819-.002-.189-.01-.374-.01-.564z" fill="#fbc773"/></g><path d="m389.506 467.924-18.735-26.445h-230.479l-14.096 26.445 3.56 28.49c.61 4.88 4.76 8.55 9.68 8.55h237.18c4.92 0 9.07-3.67 9.68-8.55l3.56-28.45z" fill="#e43e54"/><g id="XMLID_248_"><g><g><path d="m424.966 155.994c-19.55-16.13-41.92-17.8-68.68 3.07h-32.846v308.86h8.206 57.86l.35.04 38.07-304.58c.35-2.81-.78-5.59-2.96-7.39z" fill="#f9f7f8"/><path d="m289.226 159.064h-32.627v308.86h25.997 49.05l24.64-308.86c-22.88-20.05-45.26-21.06-67.06 0z" fill="#e43e54"/><path d="m159.766 159.064c-26.76-20.87-49.13-19.2-68.68-3.07-2.18 1.8-3.31 4.58-2.96 7.39l38.07 304.54h58.21v-302.98z" fill="#f9f7f8"/><path d="m226.826 159.064c-21.8-21.06-44.18-20.05-67.06 0l24.64 308.86h49.05 18.322v-308.86z" fill="#e43e54"/><path d="m282.596 467.924 6.63-308.86c-22.23-19.02-43.26-22.1-62.4 0l6.63 308.86z" fill="#f9f7f8"/></g><g><g fill="#efedef"><path d="m389.506 467.924.35.04.005-.04z"/><path d="m136.011 155.994c2.985-2.463 6.036-4.584 9.158-6.344-20.451-10.322-38.198-6.763-54.084 6.344-2.18 1.8-3.31 4.58-2.96 7.39l38.07 304.54h44.925l-38.07-304.54c-.349-2.81.781-5.59 2.961-7.39z"/></g></g><g><g fill="#efedef"><path d="m289.306 158.99c.027.026.053.049.08.074.28-.324.562-.624.843-.936-.308.288-.616.566-.923.862z"/><path d="m257.155 143.664c-3.633-.167-7.218.296-10.754 1.421 3.599-.992 7.183-1.469 10.754-1.421z"/><path d="m389.506 467.924.35.04.005-.04z"/></g></g></g></g><path d="m506.409 326.613c0-9.802-7.946-17.748-17.748-17.748-7.482 0-13.87 4.636-16.481 11.188-2.218-.997-4.671-1.564-7.26-1.564-9.802 0-17.748 7.946-17.748 17.748s7.946 17.748 17.748 17.748c1.737 0 3.411-.261 4.998-.726 1.463 8.327 8.715 14.661 17.462 14.661 9.802 0 17.748-7.946 17.748-17.748 0-4.183-1.456-8.021-3.877-11.054 3.187-3.209 5.158-7.626 5.158-12.505z" fill="#fcd89f"/><path d="m502.889 355.965c-8.747 0-15.999-6.333-17.462-14.661-1.587.465-3.261.726-4.998.726-9.802 0-17.748-7.946-17.748-17.748 0-2.007.349-3.929.963-5.728-9.203.657-16.471 8.313-16.471 17.683 0 9.802 7.946 17.748 17.748 17.748 1.737 0 3.411-.261 4.998-.726 1.463 8.328 8.715 14.661 17.462 14.661 7.795 0 14.4-5.032 16.785-12.02-.423.03-.846.065-1.277.065z" fill="#fbce85"/><path d="m60.198 219.863c-3.848-9.015-14.275-13.204-23.29-9.357-6.882 2.937-10.937 9.709-10.766 16.759-2.431-.046-4.91.395-7.291 1.411-9.015 3.848-13.204 14.275-9.357 23.29 3.848 9.015 14.275 13.204 23.29 9.357 1.598-.682 3.035-1.579 4.312-2.63 4.615 7.085 13.771 10.063 21.815 6.63 9.015-3.848 13.204-14.275 9.357-23.29-1.642-3.847-4.488-6.805-7.905-8.645 1.672-4.201 1.75-9.038-.165-13.525z" fill="#fcd89f"/><path d="m23.237 262.022c-3.848-9.015.341-19.443 9.357-23.29 2.381-1.016 4.86-1.457 7.291-1.411-.171-7.05 3.885-13.822 10.766-16.759 3.035-1.295 6.225-1.66 9.275-1.257-4.037-8.62-14.195-12.564-23.018-8.799-6.882 2.937-10.937 9.709-10.766 16.759-2.431-.046-4.91.395-7.291 1.411-9.015 3.848-13.204 14.275-9.357 23.29 2.552 5.981 8.004 9.818 14.015 10.613-.088-.187-.19-.364-.272-.557z" fill="#fbce85"/></g><g><path d="m429.743 150.208c-2.877-2.374-5.787-4.444-8.729-6.219 4.35-6.828 6.685-14.751 6.685-23.068 0-20.322-14.135-37.532-33.303-41.992-1.167-13.285-11.321-24.031-24.33-26.102-4.641-13.957-17.884-23.854-33.033-23.854-10.863 0-20.689 5.027-27.107 12.984-1.195-4.905-3.063-9.641-5.563-14.052-2.042-3.604-6.62-4.87-10.223-2.827-3.604 2.042-4.87 6.619-2.827 10.223 3.387 5.977 5.177 12.776 5.177 19.663 0 1.714-.123 3.508-.366 5.333-.288 2.161.378 4.339 1.825 5.969 1.448 1.63 3.54 2.558 5.711 2.521l.331-.011c1.145 0 2.316.075 3.481.223 2.328.295 4.734-.359 6.586-1.8 1.86-1.446 3.042-3.528 3.33-5.865 1.213-9.897 9.659-17.36 19.646-17.36 9.846 0 18.276 7.344 19.611 17.082.534 3.897 3.987 6.715 7.914 6.466l.318-.021c.202-.014.404-.034.609-.034 7.732 0 14.022 6.29 14.022 14.022 0 .796-.081 1.626-.246 2.536-.385 2.114.157 4.292 1.486 5.981s3.319 2.726 5.465 2.848c14.852.848 26.485 13.176 26.485 28.067 0 6.217-1.997 12.1-5.69 16.954-16.047-4.44-32.934-.553-50.475 11.68-23.061-17.789-46.222-17.891-67.564-.316-17.29-12.982-40.393-21.208-62.565-.553-14.695-11.823-30.239-15.286-46.01-10.403-3.208-4.505-4.944-9.876-4.944-15.521 0-14.799 12.04-26.839 26.839-26.839 4.142 0 7.5-3.358 7.5-7.5s-3.358-7.5-7.5-7.5c-23.07 0-41.839 18.769-41.839 41.839 0 7.854 2.154 15.368 6.17 21.885-2.367 1.453-4.735 3.082-7.102 4.908-17.218-12.009-33.807-15.982-49.589-11.924-5.797-3.509-9.43-9.817-9.43-16.71 0-10.774 8.766-19.54 19.54-19.54 1.131 0 2.292.105 3.453.312 2.225.397 4.509-.231 6.219-1.708s2.662-3.646 2.593-5.905c-.003-.114-.009-.228-.017-.351.082-4.016 3.374-7.258 7.409-7.258.99 0 1.952.192 2.856.571 2.851 1.191 6.138.518 8.285-1.702 2.148-2.219 2.716-5.528 1.432-8.336-1.822-3.983-2.639-8.236-2.428-12.641.664-13.854 12.031-25.214 25.878-25.863 11.462-.537 22.1 6.208 26.484 16.784 1.341 3.236 4.744 5.11 8.197 4.52 3.453-.593 6.035-3.497 6.22-6.995 1.125-21.202 18.654-37.809 39.906-37.809 4.888 0 9.676.881 14.231 2.619 3.871 1.476 8.205-.465 9.681-4.335 1.476-3.871-.465-8.205-4.335-9.681-6.269-2.391-12.856-3.603-19.577-3.603-23.05 0-42.914 14.207-51.041 34.517-8.133-7.393-19.033-11.532-30.467-11-21.489 1.007-39.129 18.634-40.159 40.129-.134 2.798 0 5.558.4 8.267-7.767 1.566-14.092 7.161-16.694 14.501-18.364.774-33.065 15.956-33.065 34.507 0 8.815 3.368 17.082 9.101 23.336-2.793 1.715-5.558 3.695-8.292 5.952-4.195 3.461-6.299 8.734-5.628 14.104l41.629 333.032c1.078 8.621 8.441 15.121 17.129 15.121h237.174c8.688 0 16.051-6.5 17.129-15.121l41.629-333.032c.671-5.371-1.433-10.643-5.628-14.105zm-148.091 12.329-6.392 297.89h-34.468l-6.406-298.554c9.697-10.307 23.769-18.017 47.266.664zm-185.796-.759c4.077-3.365 9.057-6.783 15.075-8.799.414-.098.818-.225 1.209-.391 3-.887 6.251-1.417 9.769-1.417 8.556 0 18.695 3.136 30.652 11.85l17.937 224.847c.313 3.926 3.596 6.904 7.468 6.904.2 0 .402-.008.604-.024 4.129-.329 7.209-3.943 6.88-8.072l-17.897-224.349c18.475-14.842 35.081-14.813 51.841.081l6.395 298.019h-34.454l-3.339-41.858c-.329-4.129-3.943-7.209-8.073-6.879-4.129.329-7.209 3.943-6.879 8.073l3.244 40.665h-43.475l-37.247-297.976c-.031-.246.077-.498.29-.674zm280.757 335.687h-237.174c-1.139 0-2.104-.852-2.245-1.982l-2.507-20.056h49.703.01.012 147.227.012.01 49.703l-2.507 20.056c-.141 1.13-1.106 1.982-2.244 1.982zm6.627-37.038h-43.475l16.728-209.688c.33-4.129-2.75-7.744-6.879-8.073-4.123-.337-7.743 2.75-8.073 6.88l-16.823 210.881h-34.454l6.395-298.019c16.761-14.894 33.368-14.923 51.841-.081l-4.416 55.358c-.33 4.129 2.75 7.743 6.88 8.072.203.017.404.024.604.024 3.871 0 7.155-2.978 7.468-6.904l4.456-55.857c17.99-13.111 31.854-13.58 42.421-9.77.458.232.935.412 1.424.544 5.038 2.052 9.293 5.041 12.86 7.984.213.176.321.428.291.674z"/><path d="m251.837 58.041c-4.142 0-7.5 3.358-7.5 7.5s3.358 7.5 7.5 7.5c5.065 0 9.186 4.121 9.186 9.186 0 4.142 3.358 7.5 7.5 7.5s7.5-3.358 7.5-7.5c0-13.337-10.85-24.186-24.186-24.186z"/><path d="m318.134 114.323c0-6.839 5.563-12.402 12.402-12.402 4.142 0 7.5-3.358 7.5-7.5s-3.358-7.5-7.5-7.5c-15.11 0-27.402 12.292-27.402 27.402 0 4.142 3.358 7.5 7.5 7.5s7.5-3.358 7.5-7.5z"/><path d="m511.909 326.613c0-13.922-11.326-25.248-25.248-25.248-8.035 0-15.359 3.734-20.049 9.895-1.216-.18-2.448-.271-3.691-.271-13.922 0-25.248 11.326-25.248 25.248 0 13.885 11.267 25.188 25.139 25.248 4.177 8.371 12.795 13.935 22.569 13.935 13.921 0 25.248-11.326 25.248-25.248 0-3.648-.806-7.255-2.321-10.548 2.347-3.89 3.601-8.356 3.601-13.011zm-18.52 17.182c1.465 1.836 2.239 4.041 2.239 6.376 0 5.65-4.597 10.248-10.248 10.248-4.977 0-9.214-3.558-10.075-8.458-.369-2.102-1.617-3.947-3.43-5.073-1.2-.746-2.572-1.129-3.958-1.129-.707 0-1.417.1-2.11.303-.958.28-1.929.423-2.888.423-5.651 0-10.248-4.597-10.248-10.248 0-5.65 4.597-10.248 10.248-10.248 1.441 0 2.849.305 4.186.905 1.865.837 3.993.877 5.888.11 1.896-.767 3.396-2.276 4.153-4.176 1.564-3.927 5.299-6.464 9.513-6.464 5.65 0 10.248 4.597 10.248 10.248 0 2.721-1.058 5.286-2.979 7.22-2.681 2.703-2.913 6.987-.539 9.963z"/><path d="m68.891 230.299c.632-4.499.033-9.099-1.794-13.38-2.647-6.203-7.551-11.003-13.809-13.517s-13.12-2.441-19.323.207c-7.39 3.154-12.661 9.463-14.556 16.97-1.189.312-2.357.712-3.501 1.2-6.203 2.647-11.003 7.551-13.518 13.809s-2.441 13.12.207 19.323c5.45 12.771 20.25 18.744 33.031 13.354 4.572 3.886 10.369 5.993 16.311 5.993 3.323 0 6.693-.659 9.917-2.036 12.805-5.465 18.775-20.328 13.311-33.131-1.432-3.357-3.589-6.358-6.276-8.792zm-12.923 28.126c-4.579 1.953-9.871.344-12.587-3.825-1.165-1.788-3.036-2.995-5.145-3.319-.38-.058-.76-.087-1.139-.087-1.727 0-3.415.597-4.766 1.708-.771.634-1.608 1.146-2.49 1.523-5.198 2.219-11.23-.205-13.448-5.402-1.074-2.518-1.104-5.303-.083-7.843s2.969-4.531 5.487-5.605c1.325-.565 2.739-.837 4.205-.811 2.053.05 4.017-.76 5.459-2.209 1.442-1.45 2.23-3.426 2.18-5.471-.102-4.226 2.336-8.025 6.212-9.679 5.201-2.217 11.231.206 13.448 5.402 1.068 2.503 1.102 5.277.094 7.81-1.408 3.539.06 7.57 3.414 9.376 2.068 1.113 3.646 2.837 4.562 4.985 2.217 5.196-.206 11.229-5.403 13.447z"/></g></g></svg>