<svg id="Capa_1" enable-background="new 0 0 512 512" height="512" viewBox="0 0 512 512" width="512" xmlns="http://www.w3.org/2000/svg"><g><path d="m476.904 267h-189.808c-1.907 0-3.648-1.085-4.488-2.797-3.721-7.581-5.608-15.723-5.608-24.203 0-9.57 2.491-18.863 7.245-27.16-17.152-12.206-27.245-31.606-27.245-52.84 0-34.22 26.578-62.349 60.177-64.823 2.474-33.599 30.603-60.177 64.823-60.177s62.349 26.578 64.823 60.177c33.599 2.474 60.177 30.603 60.177 64.823 0 21.234-10.093 40.634-27.245 52.84 4.754 8.297 7.245 17.59 7.245 27.16 0 8.479-1.887 16.622-5.607 24.203-.84 1.712-2.581 2.797-4.489 2.797z" fill="#beda4b"/><path d="m454.48 151.68c-4.595-6.893-13.909-8.755-20.801-4.16l-36.679 24.453v-61.973c0-8.284-6.716-15-15-15s-15 6.716-15 15v61.973l-36.68-24.453c-6.893-4.595-16.206-2.733-20.801 4.16-4.596 6.893-2.733 16.206 4.16 20.801l53.321 35.546v53.973c0 8.284 6.716 15 15 15s15-6.716 15-15v-53.973l53.32-35.547c6.894-4.594 8.756-13.908 4.16-20.8z" fill="#14cd6e"/><path d="m230 345c-52.383 0-95-42.617-95-95s42.617-95 95-95 95 42.617 95 95-42.617 95-95 95z" fill="#ff4169"/><path d="m230.179 264.028-162.634-162.634c-5.857-5.857-15.355-5.857-21.213 0-50.687 50.687-50.687 133.161 0 183.848 25.344 25.344 58.634 38.016 91.924 38.016 33.291 0 66.581-12.672 91.924-38.016 5.857-5.858 5.857-15.356-.001-21.214z" fill="#ffde46"/><g fill="#ff9d21"><path d="m123.256 292.137c-15.711-2.365-30.955-8.471-44.296-18.31l44.296-44.296z"/><path d="m57.732 134.007 44.311 44.311h-62.613c2.364-15.713 8.46-30.968 18.302-44.311z"/><path d="m39.437 208.318h62.606l-44.296 44.296c-9.839-13.342-15.946-28.586-18.31-44.296z"/><path d="m153.256 292.144v-62.614l44.311 44.311c-13.344 9.842-28.599 15.938-44.311 18.303z"/></g><path d="m256 158.617v182.767c39.784-11.335 69-48.012 69-91.383s-29.216-80.049-69-91.384z" fill="#cf3160"/><path d="m396 477h-280c-8.284 0-15-6.716-15-15v-60c0-8.284 6.716-15 15-15h280c8.284 0 15 6.716 15 15v60c0 8.284-6.716 15-15 15z" fill="#ebe1dc"/><path d="m396 387h-140v90h140c8.284 0 15-6.716 15-15v-60c0-8.284-6.716-15-15-15z" fill="#dcc8be"/><path d="m396 417h-280c-48.83 0-90.656-33.469-101.715-81.39l-13.901-60.237c-1.028-4.454.031-9.134 2.877-12.711 2.846-3.578 7.168-5.662 11.739-5.662h482c4.571 0 8.893 2.084 11.738 5.662 2.847 3.577 3.905 8.257 2.878 12.711l-13.901 60.237c-11.058 47.921-52.885 81.39-101.715 81.39z" fill="#f5f0eb"/><path d="m512 272.007c.001-3.361-1.128-6.663-3.262-9.344-2.845-3.579-7.167-5.663-11.738-5.663h-241v160h140c48.83 0 90.657-33.469 101.715-81.39l13.901-60.237c.257-1.112.383-2.238.384-3.358z" fill="#ebe1dc"/></g></svg>