<?xml version="1.0" encoding="iso-8859-1"?>
<!-- Generator: Adobe Illustrator 19.0.0, SVG Export Plug-In . SVG Version: 6.00 Build 0)  -->
<svg version="1.1" id="Capa_1" xmlns="http://www.w3.org/2000/svg" xmlns:xlink="http://www.w3.org/1999/xlink" x="0px" y="0px"
	 viewBox="0 0 512 512" style="enable-background:new 0 0 512 512;" xml:space="preserve">
<path style="fill:#FFB655;" d="M398.473,18.68H142.826c-39.574,0-71.952,32.379-71.952,71.952l0,0
	c0,26.059,14.044,48.994,34.934,61.622v193.583c0,39.574,32.379,71.952,71.952,71.952h185.779c39.574,0,71.952-32.379,71.952-71.952
	V152.255c20.89-12.628,34.934-35.563,34.934-61.622l0,0C470.424,51.059,438.046,18.68,398.473,18.68z"/>
<circle style="fill:#FF0C38;" cx="421.981" cy="237.628" r="82.469"/>
<g>
	<circle style="fill:#D80027;" cx="421.981" cy="237.628" r="56.382"/>
	<path style="fill:#D80027;" d="M498.488,206.844c-6.108-15.214-16.78-28.769-31.575-38.377
		c-38.199-24.806-89.274-13.949-114.079,24.249c-9.322,14.355-13.605,30.528-13.296,46.442
		c18.171,12.609,40.214,20.011,63.957,20.011C443.404,259.169,478.52,238.27,498.488,206.844z"/>
</g>
<path style="fill:#EEBF00;" d="M270.158,345.313l-58.941,97.396c-16.231,26.82-51.455,35.484-78.275,19.253l-97.395-58.941
	C8.726,386.79,0.062,351.566,16.292,324.746l58.941-97.396c16.231-26.82,51.455-35.484,78.275-19.253l97.395,58.941
	C277.725,283.269,286.389,318.493,270.158,345.313z"/>
<path style="fill:#DDB200;" d="M269.384,318.816c3.107-2.02,6.039-4.232,8.826-6.588c-1.174-18-10.792-35.195-27.305-45.189
	l-97.395-58.941c-26.82-16.231-62.044-7.567-78.275,19.253l-50.548,83.524l28.898,44.457c16.09,24.753,43.411,39.53,73.086,39.53
	c16.829,0,33.172-4.842,47.265-14.003L269.384,318.816z"/>
<path style="fill:#FFCD00;" d="M253.037,293.665l-95.449,62.044c-26.284,17.086-61.768,9.56-78.854-16.725l-62.044-95.449
	c-17.086-26.284-9.56-61.768,16.725-78.854l95.449-62.044c26.284-17.086,61.768-9.56,78.854,16.725l62.044,95.449
	C286.847,241.095,279.321,276.579,253.037,293.665z"/>
<path style="fill:#C70024;" d="M477.944,230.899c-1.935-16.01-10.682-31.082-25.264-40.551
	c-26.114-16.959-61.033-9.537-77.991,16.578c-9.295,14.313-11.25,31.266-6.834,46.461c11.197,3.748,23.173,5.783,35.615,5.783
	C432.009,259.169,458.093,248.478,477.944,230.899z"/>
<circle style="fill:#FF3F62;" cx="403.484" cy="146.701" r="82.469"/>
<path style="fill:#FF0C38;" d="M468.77,166.163c0-49.594-35.599-91.023-82.585-100.095c-37.239,7.95-65.172,41.025-65.172,80.637
	c0,45.546,36.923,82.469,82.469,82.469c22.064,0,42.087-8.682,56.887-22.794C465.814,193.815,468.77,180.144,468.77,166.163z"/>
<circle style="fill:#D80027;" cx="403.484" cy="146.701" r="56.382"/>
<g>
	<path style="fill:#6DC82A;" d="M56.011,174.751c0,18.924,17.75,34.813,23.294,51.89c5.746,17.698,0.924,40.947,11.645,55.678
		c10.829,14.879,34.501,17.426,49.38,28.254c14.731,10.72,24.411,32.509,42.108,38.256c17.076,5.544,37.636-6.212,56.56-6.212
		s39.484,11.756,56.559,6.212c17.698-5.746,27.377-27.535,42.109-38.257c14.878-10.828,38.552-13.375,49.38-28.254
		c10.721-14.731,5.898-37.98,11.644-55.677c5.544-17.077,23.295-32.965,23.295-51.89c0-18.537-17.544-32.521-22.873-47.191
		c-6.017-16.566-2.671-38.603-14.338-50.442c-11.574-11.745-34.166-9.038-50.111-16.347c-14.675-6.727-26.456-25.935-43.869-29.078
		c-15.979-2.884-34.258,10.71-51.797,10.71s-35.819-13.593-51.798-10.709c-17.414,3.144-29.196,22.352-43.871,29.08
		c-15.944,7.309-38.536,4.602-50.11,16.349c-11.666,11.839-8.319,33.876-14.336,50.441
		C73.555,142.231,56.011,156.214,56.011,174.751z"/>
	<path style="fill:#6DC82A;" d="M206.289,163.096c-15.335,11.088-17.81,34.783-28.398,49.281
		c-10.974,15.027-32.639,24.743-38.295,42.061c-5.712,17.493,6.096,38.169,6.04,56.57c-0.056,18.218-12.04,38.83-6.327,56.538
		c5.513,17.087,27.087,26.857,38.176,42.193c11.088,15.335,13.609,38.884,28.107,49.472c15.027,10.974,38.356,6.05,55.675,11.705
		c17.493,5.711,33.428,23.403,51.83,23.459c18.219,0.056,34.232-17.475,51.941-23.189c17.087-5.513,40.363-0.44,55.698-11.529
		c15.022-10.863,16.074-33.272,24.839-46.188c9.898-14.583,29.716-24.784,32.474-41.176c2.736-16.262-12.696-32.982-16.117-50.186
		c-3.148-15.834,5.514-36.636-2.142-52.588c-7.026-14.638-28.752-21.486-39.029-35.697c-10.277-14.212-9.974-36.99-21.674-48.249
		c-12.751-12.269-35.22-10.561-49.272-18.51c-15.266-8.637-26.31-28.53-42.61-31.027c-16.431-2.517-32.326,13.109-49.275,17.94
		C242.921,158.257,221.31,152.235,206.289,163.096z"/>
</g>
<path style="fill:#DDB200;" d="M250.905,267.038l-97.395-58.941c-26.82-16.231-62.044-7.567-78.275,19.253l-31.074,51.346v129.538
	l88.781,53.729c26.82,16.231,62.044,7.567,78.275-19.253l58.941-97.396C286.389,318.493,277.725,283.269,250.905,267.038z"/>
<path style="fill:#EEBF00;" d="M207.718,119.362c-17.086-26.284-52.57-33.81-78.854-16.726l-95.449,62.044
	c-9.81,6.377-17.004,15.318-21.284,25.385c4.986,20.33,16.194,38.87,32.03,52.78v42.951l34.573,53.187
	c17.086,26.284,52.57,33.81,78.854,16.726l95.449-62.044c26.284-17.086,33.81-52.57,16.725-78.854L207.718,119.362z"/>
<g>
	<path style="fill:#5EAC24;" d="M420.761,233.825c-10.277-14.212-9.974-36.991-21.674-48.249
		c-12.751-12.269-35.22-10.561-49.272-18.51c-15.266-8.637-26.31-28.53-42.61-31.027c-16.431-2.517-32.326,13.109-49.275,17.94
		c-15.009,4.277-36.621-1.745-51.642,9.117c-15.335,11.089-17.81,34.783-28.398,49.281c-10.974,15.027-32.639,24.743-38.295,42.061
		c-5.712,17.493,6.096,38.169,6.04,56.57c-0.056,18.218-12.04,38.83-6.327,56.538c5.513,17.087,27.087,26.857,38.176,42.193
		c11.088,15.335,13.609,38.884,28.107,49.472c15.027,10.974,38.356,6.05,55.675,11.705c17.493,5.712,33.428,23.403,51.83,23.459
		c18.219,0.056,34.232-17.476,51.941-23.189c17.087-5.513,40.363-0.44,55.698-11.529c3.878-2.805,6.821-6.383,9.211-10.366
		c2.532-8.878,3.888-18.245,3.888-27.924V246.102C428.853,242.452,424.175,238.546,420.761,233.825z"/>
	<path style="fill:#5EAC24;" d="M399.112,127.558c-6.017-16.566-2.671-38.603-14.338-50.442
		c-9.196-9.332-25.345-9.544-39.592-12.901H132.82c-14.249,3.361-30.404,3.571-39.602,12.905
		c-11.666,11.84-8.319,33.876-14.336,50.441c-5.328,14.669-22.872,28.653-22.872,47.189c0,18.924,17.75,34.813,23.294,51.889
		c5.746,17.699,0.924,40.947,11.645,55.678c10.829,14.878,34.501,17.426,49.38,28.254c14.731,10.721,24.411,32.509,42.108,38.256
		c17.076,5.544,37.636-6.212,56.56-6.212s39.484,11.756,56.559,6.212c17.698-5.746,27.377-27.536,42.109-38.257
		c14.878-10.828,38.552-13.375,49.38-28.254c10.721-14.731,5.898-37.98,11.644-55.677c5.544-17.076,23.295-32.965,23.295-51.89
		C421.985,156.212,404.442,142.228,399.112,127.558z"/>
</g>
<path style="fill:#FFDAAA;" d="M366.821,94.211H111.174c-39.574,0-71.952,32.379-71.952,71.952l0,0
	c0,26.059,14.044,48.994,34.934,61.622v193.583c0,39.574,32.379,71.952,71.952,71.952h185.779c39.574,0,71.952-32.379,71.952-71.952
	V227.785c20.89-12.628,34.934-35.563,34.934-61.622l0,0C438.773,126.589,406.394,94.211,366.821,94.211z"/>
<g>
	<path style="fill:#FFC477;" d="M156.172,421.369V254.275c0-14.626-5.763-28.561-15.708-39.286
		c-11.916-12.851-19.226-30.025-19.226-48.825l0,0c0-39.574,32.379-71.952,71.952-71.952h-82.016
		c-39.574,0-71.952,32.379-71.952,71.952l0,0c0,26.059,14.044,48.994,34.934,61.622v193.583c0,39.574,32.379,71.952,71.952,71.952
		h82.016C188.551,493.32,156.172,460.943,156.172,421.369z"/>
	<circle style="fill:#FFC477;" cx="230.058" cy="227.489" r="20.225"/>
	<circle style="fill:#FFC477;" cx="220.169" cy="394.866" r="20.225"/>
	<circle style="fill:#FFC477;" cx="351.741" cy="320.106" r="20.225"/>
	<circle style="fill:#FFC477;" cx="255.994" cy="340.334" r="7.499"/>
	<circle style="fill:#FFC477;" cx="321.015" cy="431.681" r="7.499"/>
	<circle style="fill:#FFC477;" cx="192.033" cy="272.943" r="7.499"/>
	<circle style="fill:#FFC477;" cx="278.921" cy="199.093" r="7.499"/>
	<circle style="fill:#FFC477;" cx="360.97" cy="256.525" r="7.499"/>
</g>
<path d="M488.294,176.818c2.057-5.814,3.528-11.865,4.359-18.096c0.548-4.104-2.335-7.878-6.44-8.426
	c-4.111-0.552-7.878,2.335-8.426,6.439c-3.805,28.486-24.07,52.288-50.854,61.172c4.637-5.401,8.532-11.388,11.584-17.783
	c18.103-11.864,28.844-31.67,28.844-53.421c0-35.223-28.656-63.879-63.879-63.879c-2.037,0-4.072,0.105-6.097,0.297
	c-1.527-3.723-3.583-7.23-6.412-10.344c4.106-0.689,8.283-1.044,12.509-1.044c34.784,0,65.169,24.681,73.152,58.477
	c1.738,7.359,8.406,5.8,8.959,5.676c4.041-0.907,6.582-4.918,5.675-8.959c-2.492-11.106-7.125-21.632-13.524-30.986
	c0.118-1.769,0.18-3.544,0.18-5.312c0-43.809-35.641-79.451-79.451-79.451H142.826c-43.809,0-79.451,35.641-79.451,79.451
	c0,3.847,0.29,7.696,0.845,11.491c-17.217,12.658-29.151,32.078-31.88,54.311l-3.013,1.959
	C-0.49,177.776-8.98,217.804,10.402,247.623l22.682,34.893L9.877,320.863c-18.413,30.427-8.64,70.16,21.787,88.574l35.595,21.541
	c4.761,39.292,38.294,69.842,78.849,69.842h185.779c23.015,0,43.766-9.847,58.289-25.536c11.71-0.809,24.627-2.08,34.954-9.548
	c11.209-8.105,15.706-20.843,19.673-32.082c2.154-6.101,4.188-11.864,6.976-15.972c3.314-4.883,8.067-9.369,13.1-14.118
	c9.066-8.556,18.44-17.403,20.564-30.025c2.025-12.035-3.424-23.21-8.694-34.016c-3.222-6.607-8.448-16.645-8.026-25.006
	c11.486-6.983,21.336-16.527,28.714-27.887C519.989,251.907,515.895,206.804,488.294,176.818z M464.245,213.033
	c8.812,15.094,8.925,33.854-0.024,49.194c-5.002-7.493-12.747-12.903-20.283-18.154c-5.318-3.705-10.384-7.256-14.247-11.284
	C442.528,228.908,454.26,222.207,464.245,213.033z M452.363,146.705c0,8.6-2.195,16.802-6.227,23.976
	c0.088-1.5,1.836-51.773-38.53-72.67C432.635,100.113,452.363,121.141,452.363,146.705z M461.7,78.137
	c-0.538-0.457-22.927-21.888-58.218-21.399c-10.611,0.147-20.97,1.849-30.835,5.45c-4.921-1.431-10.093-2.335-15.19-3.223
	c-7.242-1.262-14.083-2.453-19.669-5.014c-5.103-2.339-10.207-6.859-15.611-11.644c-6.776-6.001-14.287-12.65-23.402-16.128h99.697
	C429.737,26.179,455.865,48.559,461.7,78.137z M271.397,26.179c-3.538,1.013-7.046,2.234-10.514,3.446
	c-7.764,2.714-15.097,5.276-21.885,5.276c-6.79,0-14.123-2.563-21.888-5.276c-3.468-1.212-6.977-2.433-10.515-3.446H271.397z
	 M142.826,26.179h36.392c-9.116,3.478-16.627,10.128-23.404,16.131c-5.403,4.785-10.508,9.306-15.611,11.645
	c-5.585,2.561-12.426,3.751-19.668,5.013c-11.844,2.063-24.093,4.195-32.658,12.888c-5.071,5.146-7.809,11.602-9.487,18.072
	C78.771,54.714,107.523,26.179,142.826,26.179z M22.709,328.628l19.453-32.146l5.588,8.597c4.943,5.801,9.113,3.021,10.374,2.2
	c3.473-2.257,4.457-6.901,2.201-10.375l-37.348-57.456c-13.659-21.013-9.271-48.622,9.254-64.516
	c2.599,22.849,15.213,43.854,34.427,56.946v181.205l-27.228-16.478C16.078,382.475,8.578,351.98,22.709,328.628z M331.888,485.823
	H146.108c-35.539,0-64.453-28.913-64.453-64.453V227.786c0-2.626-1.373-5.06-3.619-6.417c-19.315-11.676-31.314-32.83-31.314-55.206
	c0-35.54,28.913-64.453,64.453-64.453h82.015c4.141,0,7.499-3.357,7.499-7.499c0-4.142-3.358-7.499-7.499-7.499h-82.016
	c-5.668,0-11.196,0.608-16.532,1.742c0.99-2.307,2.254-4.381,3.917-6.069c5.191-5.269,14.594-6.906,24.549-8.641
	c7.864-1.369,15.995-2.786,23.346-6.155c7.128-3.269,13.318-8.75,19.304-14.052c7.552-6.687,14.685-13.005,22.774-14.466
	c6.689-1.208,14.919,1.669,23.631,4.712c8.604,3.008,17.501,6.116,26.836,6.116c9.334-0.001,18.229-3.11,26.832-6.116
	c8.711-3.046,16.936-5.924,23.632-4.712c8.088,1.46,15.22,7.776,22.771,14.464c5.986,5.301,12.176,10.784,19.305,14.051
	c7.351,3.371,15.482,4.786,23.346,6.155c9.955,1.733,19.357,3.371,24.549,8.64c1.65,1.674,2.913,3.748,3.907,6.07
	c-5.331-1.132-10.854-1.739-16.519-1.739H228.124c-4.141,0-7.499,3.357-7.499,7.499c0,4.142,3.358,7.499,7.499,7.499h138.698
	c35.539,0,64.453,28.913,64.453,64.453c0,22.376-11.999,43.529-31.315,55.206c-2.247,1.357-3.62,3.791-3.62,6.417v193.583
	C396.341,456.909,367.427,485.823,331.888,485.823z M470.653,371.052c-1.289,7.658-8.467,14.433-16.068,21.605
	c-5.397,5.094-10.979,10.362-15.215,16.603c-3.875,5.71-6.333,12.671-8.709,19.401c-3.551,10.059-6.905,19.559-14.319,24.921
	c-4.046,2.927-9.013,4.475-14.493,5.404c6.049-11.204,9.49-24.016,9.49-37.618V232.803c1.047,1.969,2.153,3.765,3.347,5.416
	c5.469,7.564,13.202,12.951,20.68,18.161c7.572,5.274,14.723,10.258,17.666,16.388c3.557,7.41,2.617,16.891,1.623,26.928
	c-0.789,7.957-1.604,16.186-0.075,23.877c1.577,7.931,5.193,15.35,8.692,22.524C467.698,355.179,471.88,363.757,470.653,371.052z
	 M484.861,278.462c-4.071,6.27-9.048,11.872-14.72,16.633c0.412-5.078,0.616-10.343,0.041-15.55
	c1.947-2.244,3.753-4.623,5.376-7.123c14.162-21.809,13.678-49.653-0.799-70.813c2.423-3.131,4.624-6.397,6.595-9.788
	C500.582,216.64,502.47,251.346,484.861,278.462z"/>
<g>
</g>
<g>
</g>
<g>
</g>
<g>
</g>
<g>
</g>
<g>
</g>
<g>
</g>
<g>
</g>
<g>
</g>
<g>
</g>
<g>
</g>
<g>
</g>
<g>
</g>
<g>
</g>
<g>
</g>
</svg>
