<svg height="512" viewBox="0 0 512 512" width="512" xmlns="http://www.w3.org/2000/svg"><g id="Flat"><path d="m344 360h-176a16 16 0 0 1 -16-16v-256a64 64 0 0 1 64-64h80a64 64 0 0 1 64 64v256a16 16 0 0 1 -16 16z" fill="#f35244"/><path d="m296 24h-64a64 64 0 0 1 64 64v256a16 16 0 0 1 -16 16h64a16 16 0 0 0 16-16v-256a64 64 0 0 0 -64-64z" fill="#e64c3f"/><path d="m192.866 81.6-15.42-4.273a40.4 40.4 0 0 1 18.542-23.954l8.024 13.843a24.26 24.26 0 0 0 -11.146 14.384z" fill="#fc685b"/><path d="m176 96h16v56h-16z" fill="#fc685b"/><path d="m152 296h208a0 0 0 0 1 0 0v48a16 16 0 0 1 -16 16h-176a16 16 0 0 1 -16-16v-48a0 0 0 0 1 0 0z" fill="#f2dec2"/><path d="m296 296v48a16 16 0 0 1 -16 16h64a16 16 0 0 0 16-16v-48z" fill="#eedabf"/><path d="m313.672 223.942c-14.1.975-25.672-10.423-25.672-24.557v-23.068a8.213 8.213 0 0 0 -7.486-8.3 8.009 8.009 0 0 0 -8.514 7.983v7.385c0 14.134-11.572 25.532-25.672 24.557a24.031 24.031 0 0 1 -22.328-23.942v-24a8 8 0 0 1 8-8 8 8 0 0 1 8 8v23.683a8.213 8.213 0 0 0 7.486 8.3 8.009 8.009 0 0 0 8.514-7.983v-7.385c0-14.134 11.572-25.532 25.672-24.557a24.031 24.031 0 0 1 22.328 23.942v23.683a8.213 8.213 0 0 0 7.486 8.3 8.009 8.009 0 0 0 8.514-7.983v-16a8 8 0 0 1 8-8 8 8 0 0 1 8 8v16a24.031 24.031 0 0 1 -22.328 23.942z" fill="#de4132"/><path d="m232 360h48a0 0 0 0 1 0 0v104a24 24 0 0 1 -24 24 24 24 0 0 1 -24-24v-104a0 0 0 0 1 0 0z" fill="#ffb531"/><path d="m232 360h48v24h-48z" fill="#ffa912"/></g></svg>