<svg height="512pt" viewBox="0 0 512 512" width="512pt" xmlns="http://www.w3.org/2000/svg"><path d="m486.042969 0h-33.777344c-4.710937 0-8.53125 3.820312-8.53125 8.535156 0 4.710938 3.820313 8.53125 8.53125 8.53125h33.777344c4.90625.003906 8.886719 3.984375 8.890625 8.890625v33.777344c0 4.710937 3.820312 8.53125 8.53125 8.53125 4.714844 0 8.535156-3.820313 8.535156-8.53125v-33.777344c-.015625-14.328125-11.628906-25.941406-25.957031-25.957031zm0 0"/><path d="m503.464844 443.734375c-4.710938 0-8.53125 3.820313-8.53125 8.53125v33.777344c-.003906 4.90625-3.984375 8.886719-8.890625 8.890625h-33.777344c-4.710937 0-8.53125 3.820312-8.53125 8.53125 0 4.714844 3.820313 8.535156 8.53125 8.535156h33.777344c14.328125-.015625 25.941406-11.628906 25.957031-25.957031v-33.777344c0-4.710937-3.820312-8.53125-8.535156-8.53125zm0 0"/><path d="m8.535156 68.265625c4.710938 0 8.53125-3.820313 8.53125-8.53125v-33.777344c.003906-4.90625 3.984375-8.886719 8.890625-8.890625h33.777344c4.710937 0 8.53125-3.820312 8.53125-8.53125 0-4.714844-3.820313-8.535156-8.53125-8.535156h-33.777344c-14.328125.015625-25.941406 11.628906-25.957031 25.957031v33.777344c0 4.710937 3.820312 8.53125 8.535156 8.53125zm0 0"/><path d="m25.957031 512h33.777344c4.710937 0 8.53125-3.820312 8.53125-8.535156 0-4.710938-3.820313-8.53125-8.53125-8.53125h-33.777344c-4.90625-.003906-8.886719-3.984375-8.890625-8.890625v-32.070313c0-4.710937-3.820312-8.53125-8.53125-8.53125-4.714844 0-8.535156 3.820313-8.535156 8.53125v32.070313c.015625 14.328125 11.628906 25.941406 25.957031 25.957031zm0 0"/><path d="m119.535156 424.105469c1.667969 0 3.300782-.488281 4.691406-1.40625 3.902344-2.578125 7.722657-5.269531 11.453126-8.082031 3.730468-2.808594 7.371093-5.71875 10.914062-8.71875 3.542969-3.023438 6.996094-6.152344 10.359375-9.386719 3.363281-3.238281 6.621094-6.554688 9.769531-9.953125 3.152344-3.410156 6.214844-6.9375 9.148438-10.539063 2.9375-3.597656 5.796875-7.300781 8.535156-11.089843 2.738281-3.789063 5.339844-7.683594 7.839844-11.605469 2.5-3.925781 4.890625-7.988281 7.144531-12.09375s4.402344-8.292969 6.425781-12.570313c2.019532-4.273437 3.890625-8.582031 5.714844-13.148437l1.230469-3.269531c1.53125-4.378907-.722657-9.179688-5.070313-10.804688s-9.195312.519531-10.914062 4.832031l-1.160156 3.097657c-1.628907 4.070312-3.414063 8.089843-5.222657 12.015624-1.808593 3.925782-3.855469 7.824219-5.972656 11.640626-2.117187 3.8125-4.265625 7.535156-6.605469 11.1875-2.335937 3.652343-4.75 7.25-7.269531 10.75-2.515625 3.5-5.121094 6.929687-7.902344 10.238281-2.78125 3.3125-5.554687 6.597656-8.480469 9.765625-2.929687 3.164062-5.972656 6.253906-9.039062 9.230468-3.0625 2.980469-6.320312 5.878907-9.605469 8.679688-3.285156 2.796875-6.667969 5.496094-10.113281 8.089844-3.449219 2.59375-6.980469 5.121094-10.597656 7.464844-3.148438 2.078124-4.5625 5.972656-3.476563 9.585937 1.085938 3.609375 4.414063 6.082031 8.1875 6.074219zm0 0"/><path d="m328.976562 218.367188c-.390624-1.925782-.851562-3.832032-1.46875-5.734376-.613281-1.902343-1.261718-3.710937-2.011718-5.496093-.75-1.78125-1.605469-3.53125-2.507813-5.195313-.917969-1.695312-1.914062-3.339844-2.996093-4.933594-1.074219-1.59375-2.226563-3.128906-3.414063-4.597656s-2.507813-2.894531-3.867187-4.265625c-1.355469-1.375-2.773438-2.648437-4.265626-3.859375-1.492187-1.210937-3.003906-2.363281-4.597656-3.414062-1.597656-1.046875-3.226562-2.070313-4.917968-2.992188-1.6875-.921875-3.410157-1.757812-5.195313-2.5-1.8125-.773437-3.660156-1.449218-5.539063-2.03125-1.875-.585937-3.78125-1.074218-5.707031-1.460937-1.976562-.40625-3.96875-.710938-5.972656-.914063-4.054687-.398437-8.136719-.398437-12.1875 0-1.984375.203125-3.957031.503906-5.914063.90625-1.945312.390625-3.875.894532-5.75 1.46875-1.878906.570313-3.710937 1.261719-5.480468 2.011719-1.765625.75-3.539063 1.597656-5.246094 2.519531s-3.335938 1.925782-4.890625 2.976563c-1.550781 1.050781-3.15625 2.246093-4.605469 3.414062-1.488281 1.210938-2.910156 2.5-4.269531 3.855469-1.351563 1.355469-2.636719 2.777344-3.847656 4.265625-1.210938 1.492187-2.347657 3.027344-3.414063 4.609375-1.058594 1.578125-2.0625 3.21875-2.996094 4.933594-.929687 1.714844-1.765624 3.414062-2.488281 5.1875-.769531 1.800781-1.441406 3.636718-2.023437 5.503906-.589844 1.882812-1.078125 3.796875-1.46875 5.734375-.402344 1.9375-.707032 3.925781-.921875 5.972656-.210938 2.046875-.296875 4.035157-.296875 6.09375 0 4.660157-.144532 9.277344-.4375 13.847657-.289063 4.574218-.730469 9.113281-1.320313 13.613281-.574219 4.496093-1.28125 9.207031-2.144531 13.609375-.894531 4.625 2.121094 9.097656 6.742188 10 .546874.089844 1.101562.125 1.65625.105468 4.078124-.007812 7.582031-2.902343 8.363281-6.90625.929687-4.75 1.707031-9.835937 2.328125-14.691406.625-4.855468 1.09375-9.746094 1.417968-14.703125.324219-4.960937.46875-9.917969.46875-14.933593-.011718-2.902344.277344-5.800782.851563-8.644532.273437-1.367187.621094-2.71875 1.042969-4.046875.414062-1.339843.898437-2.652343 1.449218-3.941406.527344-1.257813 1.117188-2.488281 1.765626-3.6875.667968-1.210937 1.382812-2.398437 2.160156-3.539063.761718-1.136718 1.582031-2.234374 2.457031-3.285156.855469-1.058594 1.785156-2.066406 2.742187-3.03125.953126-.964844 1.976563-1.875 3.054688-2.753906 2.121094-1.746094 4.40625-3.285156 6.824219-4.59375 3.679687-2 7.636719-3.441406 11.742187-4.265625 1.410156-.296875 2.835938-.515625 4.265625-.65625 2.902344-.289063 5.828125-.289063 8.730469 0 1.433594.144531 2.855469.363281 4.265625.65625 1.382813.28125 2.75.640625 4.0625 1.042969 1.316406.398437 2.628906.894531 3.933594 1.441406 2.53125 1.078125 4.949219 2.394531 7.230469 3.933594 1.132812.765625 2.242187 1.59375 3.300781 2.464844 1.058593.871093 2.046875 1.785156 3.011719 2.738281.964843.957031 1.886718 1.972656 2.765624 3.039062.878907 1.066407 1.707032 2.140625 2.464844 3.300781.761719 1.164063 1.46875 2.289063 2.132813 3.515626.667969 1.230468 1.246093 2.449218 1.800781 3.730468s1.015625 2.558594 1.417969 3.867188c.402343 1.304687.769531 2.722656 1.042969 4.050781l.289062 1.546875c.777344 4.648438 5.175781 7.785156 9.824219 7.007812 4.652343-.777343 7.789062-5.175781 7.011719-9.824218zm0 0"/><path d="m274.140625 382.371094c-2.292969 4.105468-.828125 9.296875 3.273437 11.597656 4.105469 2.304688 9.296876.851562 11.609376-3.246094 2.714843-4.828125 4.105468-7.558594 6.570312-12.515625 2.46875-4.960937 4.789062-9.96875 7.023438-15.054687 2.234374-5.085938 4.308593-10.238282 6.265624-15.445313 1.953126-5.203125 3.8125-10.488281 5.519532-15.8125 1.707031-5.324219 3.285156-10.726562 4.726562-16.167969 1.441406-5.445312 2.75-10.949218 3.917969-16.503906 1.167969-5.554687 2.199219-11.15625 3.097656-16.804687.894531-5.648438 1.621094-11.339844 2.226563-17.066407.308594-2.867187.5625-5.742187.792968-8.625.378907-4.699218-3.125-8.816406-7.824218-9.191406-4.699219-.378906-8.8125 3.125-9.191406 7.824219-.210938 2.757813-.460938 5.488281-.742188 8.210937-.566406 5.441407-1.28125 10.847657-2.132812 16.210938-.851563 5.367188-1.828126 10.671875-2.925782 15.914062-1.097656 5.265626-2.335937 10.476563-3.714844 15.644532-1.375 5.164062-2.871093 10.285156-4.488281 15.359375-1.621093 5.0625-3.363281 10.070312-5.230469 15.019531-1.863281 4.949219-3.855468 9.824219-5.972656 14.625-2.105468 4.816406-4.324218 9.582031-6.664062 14.292969-2.285156 4.640625-3.59375 7.203125-6.136719 11.734375zm0 0"/><path d="m221.78125 472.890625c2.203125.003906 4.324219-.847656 5.914062-2.371094 3.941407-3.789062 7.789063-7.667969 11.546876-11.640625 3.753906-3.96875 7.40625-8.03125 10.964843-12.183594 3.566407-4.152343 7.027344-8.402343 10.382813-12.742187 3.359375-4.339844 6.609375-8.75 9.753906-13.226563 2.699219-3.867187 1.75-9.1875-2.117188-11.886718-3.863281-2.699219-9.1875-1.75-11.886718 2.117187-2.972656 4.265625-6.058594 8.449219-9.25 12.550781-3.191406 4.101563-6.476563 8.128907-9.863282 12.078126-3.378906 3.941406-6.847656 7.796874-10.410156 11.570312-3.5625 3.769531-7.203125 7.464844-10.921875 11.082031-2.511719 2.414063-3.304687 6.109375-2.003906 9.335938 1.296875 3.230469 4.425781 5.347656 7.90625 5.351562zm0 0"/><path d="m183.464844 461.472656c2 0 3.9375-.703125 5.472656-1.988281 4.082031-3.410156 8.066406-6.941406 11.945312-10.589844 3.917969-3.640625 6.28125-5.914062 9.941407-9.699219 7.492187-7.714843 14.546875-15.847656 21.121093-24.355468l1.5-1.921875c3.054688-3.90625 6.683594-8.53125 9.277344-12.296875 3.058594-4.394532 5.992188-8.871094 8.796875-13.421875 2.804688-4.550781 5.511719-9.191407 8.117188-13.917969 2.5625-4.710938 5.011719-9.5 7.34375-14.371094 2.335937-4.867187 4.523437-9.804687 6.574219-14.804687 2.082031-5.011719 4.011718-10.082031 5.792968-15.214844l.578125-1.707031c1.066407-2.890625.488281-6.136719-1.511719-8.484375-2-2.34375-5.109374-3.429688-8.132812-2.839844-3.027344.59375-5.5 2.773437-6.464844 5.703125l-.582031 1.644531c-1.703125 4.835938-3.523437 9.621094-5.449219 14.355469-1.929687 4.730469-3.976562 9.402344-6.136718 14.011719-2.191407 4.585937-4.5 9.101562-6.929688 13.550781s-4.976562 8.820312-7.636719 13.113281c-2.644531 4.296875-5.40625 8.511719-8.285156 12.648438-2.449219 3.507812-5.871094 7.875-8.730469 11.546875l-1.570312 2.003906c-6.179688 7.976562-12.792969 15.605469-19.816406 22.851562-3.480469 3.601563-5.699219 5.71875-9.382813 9.140626-3.6875 3.421874-7.453125 6.757812-11.308594 9.984374-2.753906 2.304688-3.773437 6.085938-2.542969 9.460938 1.226563 3.375 4.4375 5.621094 8.03125 5.617188zm0 0"/><path d="m277.179688 262.484375c-.597657 5.257813-1.335938 10.472656-2.21875 15.652344-.5625 3.265625-1.289063 7.03125-1.960938 10.238281-.957031 4.613281 2.007812 9.128906 6.621094 10.085938.558594.121093 1.132812.179687 1.707031.179687 4.046875-.007813 7.535156-2.859375 8.34375-6.828125.707031-3.410156 1.46875-7.40625 2.058594-10.851562.941406-5.492188 1.730469-11.027344 2.363281-16.617188.640625-5.570312 1.117188-11.210938 1.433594-16.867188.316406-5.660156.484375-11.386718.484375-17.136718 0-.851563-.050781-1.707032-.125-2.609375-.078125-.90625-.222657-1.707031-.378907-2.46875-.164062-.863281-.382812-1.71875-.648437-2.558594-.253906-.800781-.542969-1.605469-.851563-2.339844-.648437-1.53125-1.441406-2.996093-2.371093-4.375-.472657-.683593-.957031-1.339843-1.460938-1.945312-.503906-.605469-1.074219-1.246094-1.621093-1.785157-.578126-.601562-1.191407-1.171874-1.835938-1.707031-.636719-.53125-1.300781-1.027343-1.988281-1.492187-.679688-.460938-1.382813-.886719-2.097657-1.28125-.726562-.382813-1.46875-.742188-2.21875-1.066406-.75-.324219-1.5625-.613282-2.371093-.851563-.8125-.257813-1.640625-.46875-2.476563-.632813-.84375-.175781-1.699218-.308593-2.558594-.390624-1.738281-.167969-3.488281-.167969-5.222656 0-1.695312.164062-3.367187.503906-4.992187 1.011718-.8125.257813-1.605469.546875-2.328125.855469-.726563.308594-1.53125.691406-2.261719 1.082031-.734375.394532-1.46875.855469-2.058594 1.257813-.699219.460937-1.375.960937-2.023437 1.5-.648438.539062-1.261719 1.09375-1.746094 1.585937-.625.613282-1.214844 1.261719-1.769531 1.9375-1.011719 1.242188-1.90625 2.574219-2.679688 3.976563-.402343.738281-.765625 1.496093-1.089843 2.269531-.324219.773438-.609376 1.5625-.855469 2.363281-.261719.84375-.480469 1.699219-.65625 2.5625-.160157.851563-.289063 1.628907-.375 2.457031-.085938.828126-.128907 1.707032-.128907 2.609376 0 4.714843 3.820313 8.535156 8.535157 8.535156 4.710937 0 8.53125-3.820313 8.53125-8.535156 0-.285157.015625-.570313.042969-.851563l.964843-3.125c0-.042969.417969-.691406.4375-.742187l.988281-1.210938 1.28125-1.074219 1.484376-.855469 1.578124-.5c.289063-.0625.589844-.105468.851563-.136718.582031-.0625.316406-.1875 2.613281.125l1.570313.488281 1.484375.800781 4.761718-7.074218-3.542968 8.082031.589844.640625.851562 1.3125.386719.792968.476562 1.519532s.136719.855468.136719.914062c.03125.285156.050781.566406.050781.851563 0 5.429687-.148437 10.820312-.453125 16.171875-.300781 5.355468-.722656 10.703125-1.261718 16.050781zm0 0"/><path d="m241.75 271.566406c-.855469 4.863282-2.902344 13.457032-4.035156 18.0625-1.140625 4.734375-2.4375 9.417969-3.894532 14.046875-1.453124 4.628907-3.019531 9.203125-4.691406 13.722657-1.707031 4.511718-3.523437 8.957031-5.445312 13.300781l-.902344 1.980469c-1.277344 2.769531-.980469 6.011718.78125 8.5 1.761719 2.488281 4.714844 3.851562 7.753906 3.570312 3.035156-.277344 5.691406-2.15625 6.96875-4.925781l.980469-2.175781c2.074219-4.6875 4.035156-9.4375 5.847656-14.261719 1.808594-4.820313 3.480469-9.710938 5.015625-14.660157 1.535156-4.949218 2.925782-9.964843 4.164063-15.027343 1.015625-4.128907 3.21875-13.421875 4.265625-19.0625.613281-3.023438-.457032-6.144531-2.796875-8.15625-2.339844-2.011719-5.582031-2.605469-8.480469-1.550781-2.902344 1.054687-5.007812 3.589843-5.507812 6.636718zm0 0"/><path d="m149.402344 444.902344c1.828125-.011719 3.605468-.609375 5.066406-1.707032 4.0625-3.003906 8.046875-6.132812 11.949219-9.386718 3.902343-3.253906 7.695312-6.597656 11.382812-10.027344 3.695313-3.414062 7.277344-6.996094 10.792969-10.65625s6.828125-7.398438 10.140625-11.230469c3.308594-3.832031 6.457031-7.800781 9.53125-11.84375 3.070313-4.046875 5.972656-8.148437 8.832031-12.367187 1.328125-1.976563 2.632813-3.96875 3.90625-5.972656 1.910156-2.574219 2.210938-6.003907.785156-8.875-1.425781-2.871094-4.339843-4.699219-7.546874-4.734376-3.203126-.035156-6.160157 1.726563-7.648438 4.566407-1.195312 1.882812-2.417969 3.753906-3.664062 5.589843-2.644532 3.941407-5.410157 7.804688-8.257813 11.570313-2.851563 3.761719-5.828125 7.464844-8.910156 11.09375-3.082031 3.625-6.253907 7.117187-9.515625 10.527344-3.257813 3.414062-6.636719 6.742187-10.085938 9.960937-3.445312 3.214844-7.03125 6.363282-10.65625 9.386719-3.628906 3.019531-7.375 5.972656-11.1875 8.761719-2.9375 2.203125-4.136718 6.042968-2.976562 9.527344 1.160156 3.484374 4.421875 5.832031 8.097656 5.832031zm0 0"/><path d="m93.945312 399.949219c1.542969 0 3.054688-.421875 4.375-1.21875 3.566407-2.140625 7.066407-4.394531 10.496094-6.761719 3.429688-2.363281 6.769532-4.832031 10.019532-7.398438 3.242187-2.558593 6.402343-5.222656 9.480468-7.984374 1.84375-1.640626 3.648438-3.316407 5.417969-5.035157 3.394531-3.273437 3.496094-8.679687.222656-12.074219-3.273437-3.398437-8.679687-3.496093-12.074219-.222656-1.617187 1.550782-3.265624 3.082032-4.941406 4.589844-2.84375 2.527344-5.738281 4.960938-8.679687 7.304688-2.976563 2.339843-6.03125 4.601562-9.136719 6.75-3.109375 2.152343-6.316406 4.214843-9.585938 6.167968-3.292968 1.976563-4.867187 5.90625-3.835937 9.605469 1.027344 3.703125 4.398437 6.261719 8.242187 6.25zm0 0"/><path d="m185.121094 221.867188c-4.710938 0-8.53125 3.820312-8.53125 8.53125 0 4.089843-.128906 8.132812-.410156 12.144531s-.667969 7.980469-1.195313 11.945312c-.527344 3.96875-1.175781 7.828125-1.960937 11.667969-.785157 3.839844-1.707032 7.679688-2.699219 11.398438-.988281 3.722656-2.15625 7.457031-3.414063 11.09375-1.253906 3.636718-2.625 7.253906-4.109375 10.792968-1.488281 3.542969-3.066406 7.023438-4.773437 10.457032-1.707032 3.429687-3.503906 6.78125-5.390625 10.058593-1.886719 3.277344-3.917969 6.519531-6.027344 9.6875-1.492187 2.242188-3.042969 4.453125-4.632813 6.621094-1.800781 2.457031-2.15625 5.691406-.929687 8.484375 1.226563 2.789062 3.851563 4.714844 6.882813 5.046875s6.007812-.980469 7.8125-3.4375c1.707031-2.371094 3.414062-4.796875 5.070312-7.246094 2.300781-3.464843 4.496094-6.988281 6.59375-10.605469 2.101562-3.617187 4.0625-7.289062 5.914062-11.023437 1.851563-3.738281 3.601563-7.578125 5.230469-11.460937 1.628907-3.882813 3.117188-7.816407 4.488281-11.8125 1.375-3.992188 2.628907-8.0625 3.753907-12.191407 1.128906-4.132812 2.109375-8.277343 2.960937-12.496093.855469-4.214844 1.570313-8.480469 2.144532-12.796876.570312-4.320312 1.015624-8.671874 1.320312-13.058593.308594-4.386719.4375-8.832031.4375-13.292969-.015625-4.703125-3.832031-8.507812-8.535156-8.507812zm0 0"/><path d="m198.03125 170.667969c-1.921875 2.320312-3.722656 4.730469-5.410156 7.226562-1.703125 2.5-3.265625 5.121094-4.691406 7.730469-1.320313 2.367188-2.511719 4.808594-3.566407 7.304688-1.839843 4.339843.183594 9.347656 4.523438 11.1875 1.050781.453124 2.183593.683593 3.328125.683593 3.421875-.003906 6.511718-2.046875 7.847656-5.199219.855469-1.992187 1.8125-3.941406 2.867188-5.835937 1.179687-2.167969 2.457031-4.273437 3.832031-6.3125 1.390625-2.039063 2.851562-4.011719 4.421875-5.914063 1.570312-1.902343 3.226562-3.722656 4.957031-5.453124 1.734375-1.734376 3.558594-3.414063 5.46875-4.96875 1.914063-1.550782 3.875-3.042969 5.898437-4.417969 2.023438-1.375 4.164063-2.664063 6.347657-3.847657 2.183593-1.1875 4.421875-2.269531 6.707031-3.234374 4.640625-1.964844 9.46875-3.460938 14.40625-4.472657 2.5-.511719 5.050781-.894531 7.628906-1.167969 5.226563-.527343 10.492188-.527343 15.71875 0 2.558594.273438 5.117188.65625 7.636719 1.167969 2.515625.511719 4.941406 1.144531 7.355469 1.894531.902344.28125 1.808594.582032 2.695312.851563 2.898438 1.121094 6.175782.574219 8.554688-1.421875 2.378906-2 3.488281-5.128906 2.890625-8.179688-.597657-3.046874-2.804688-5.53125-5.761719-6.480468-1.101562-.394532-2.210938-.761719-3.3125-1.101563-5.96875-1.863281-12.113281-3.113281-18.335938-3.738281-6.375-.640625-12.800781-.640625-19.175781 0-3.125.3125-6.230469.785156-9.308593 1.417969-3.035157.617187-6.039063 1.394531-8.996094 2.320312-2.949219.910157-5.832032 1.960938-8.644532 3.15625-2.808593 1.195313-5.546874 2.511719-8.207031 3.949219-2.644531 1.441406-5.226562 3.011719-7.75 4.710938-2.519531 1.703124-4.921875 3.5-7.210937 5.394531-2.3125 1.910156-4.535156 3.929687-6.664063 6.058593-2.125 2.128907-4.144531 4.359376-6.050781 6.691407zm0 0"/><path d="m345.710938 263.59375c-.527344 5.460938-1.160157 10.890625-1.929688 16.273438-.355469 2.558593-.535156 4.753906-.714844 6.894531-.144531 2.472656-.429687 4.933593-.855468 7.375-.660157 3.03125.375 6.183593 2.707031 8.230469 2.332031 2.046874 5.589843 2.667968 8.511719 1.621093 2.921874-1.050781 5.042968-3.597656 5.542968-6.660156.550782-3.035156.929688-6.097656 1.132813-9.175781.15625-1.824219.300781-3.703125.617187-5.878906.789063-5.648438 1.460938-11.335938 2.011719-17.066407.550781-5.726562.957031-11.492187 1.210937-17.296875.285157-5.792968.421876-11.625.410157-17.5 0-3.238281-.160157-6.4375-.476563-9.59375-.320312-3.15625-.792968-6.261718-1.425781-9.308594-.621094-3.035156-1.394531-6.039062-2.320313-8.996093-.902343-2.9375-1.960937-5.828125-3.167968-8.660157-1.1875-2.792968-2.503906-5.527343-3.949219-8.199218-1.445313-2.675782-3.011719-5.253906-4.703125-7.742188-1.707031-2.492187-3.488281-4.898437-5.382812-7.199218-1.707032-2.078126-3.503907-4.070313-5.386719-5.976563-2.132813-2.179687-5.265625-3.054687-8.222657-2.296875-2.953124.757812-5.28125 3.035156-6.101562 5.972656-.820312 2.941406-.011719 6.09375 2.125 8.273438 1.542969 1.570312 3.011719 3.207031 4.417969 4.914062 1.566406 1.898438 3.035156 3.867188 4.414062 5.90625 1.378907 2.046875 2.667969 4.171875 3.839844 6.320313 1.167969 2.152343 2.269531 4.4375 3.242187 6.734375.976563 2.300781 1.832032 4.65625 2.558594 7.050781.757813 2.414063 1.394532 4.867187 1.902344 7.34375.511719 2.523437.894531 5.070313 1.152344 7.628906.273437 2.613281.40625 5.234375.402344 7.859375 0 5.597656-.132813 11.167969-.394532 16.710938-.261718 5.539062-.648437 11.019531-1.167968 16.441406zm0 0"/><path d="m264.585938 477.714844c2.425781 0 4.738281-1.035156 6.355468-2.84375 3.636719-4.0625 7.175782-8.199219 10.617188-12.40625 3.410156-4.214844 6.824218-8.535156 10.066406-12.867188 3.246094-4.335937 6.425781-8.824218 9.472656-13.324218 1.707032-2.472657 3.335938-4.972657 4.984375-7.515626 1.332031-2.074218 2.652344-4.164062 3.925781-6.246093 2.871094-4.648438 5.644532-9.375 8.3125-14.175781 2.667969-4.800782 5.226563-9.65625 7.679688-14.566407 2.441406-4.921875 4.792969-9.90625 7.023438-14.941406 2.226562-5.035156 4.359374-10.144531 6.371093-15.359375 2.015625-5.214844 3.910157-10.367188 5.695313-15.640625 1.585937-4.675781 3.078125-9.398437 4.476562-14.167969 1.328125-4.523437-1.265625-9.265625-5.789062-10.59375-4.523438-1.324218-9.265625 1.265625-10.59375 5.792969-1.332032 4.550781-2.753906 9.050781-4.265625 13.507813-1.707031 5.027343-3.515625 9.996093-5.429688 14.90625-1.910156 4.910156-3.933593 9.773437-6.074219 14.59375-2.132812 4.800781-4.359374 9.5625-6.699218 14.242187-2.335938 4.675781-4.777344 9.316406-7.320313 13.890625s-5.171875 9.0625-7.929687 13.523438c-1.226563 2.007812-2.488282 4.003906-3.734375 5.976562-1.554688 2.398438-3.136719 4.785156-4.746094 7.15625-2.925781 4.3125-5.941406 8.550781-9.054687 12.707031-3.109376 4.160157-6.3125 8.253907-9.597657 12.28125-3.277343 4.027344-6.664062 7.96875-10.113281 11.835938-2.238281 2.507812-2.796875 6.097656-1.425781 9.164062 1.375 3.070313 4.421875 5.046875 7.78125 5.050781zm0 0"/><path d="m72.535156 372.8125c1.457032 0 2.890625-.371094 4.164063-1.082031 3.09375-1.742188 6.121093-3.578125 9.078125-5.503907 2.953125-1.929687 5.84375-3.953124 8.652344-6.058593 2.808593-2.109375 5.589843-4.3125 8.261718-6.597657 2.667969-2.289062 5.265625-4.660156 7.773438-7.101562 2.507812-2.4375 4.957031-4.980469 7.320312-7.601562 2.363282-2.621094 4.632813-5.300782 6.828125-8.054688 2.191407-2.757812 4.265625-5.589844 6.296875-8.535156 2.03125-2.941406 3.90625-5.871094 5.707032-8.882813 1.800781-3.011719 3.542968-6.136719 5.121093-9.300781s3.140625-6.375 4.566407-9.667969c1.425781-3.292969 2.722656-6.605469 3.90625-9.96875 1.1875-3.359375 2.296874-6.824219 3.269531-10.304687.972656-3.484375 1.84375-7.007813 2.558593-10.582032.71875-3.578124 1.375-7.1875 1.886719-10.855468.511719-3.667969.855469-7.347656 1.144531-11.09375.289063-3.746094.382813-7.484375.382813-11.273438 0-3.792968.195313-7.582031.582031-11.355468.375-3.660157.929688-7.375 1.707032-11.019532.714843-3.488281 1.628906-7.0625 2.730468-10.605468 1.101563-3.542969 2.328125-6.878907 3.726563-10.1875 1.402343-3.3125 2.960937-6.554688 4.667969-9.695313 1.707031-3.140625 3.566406-6.195313 5.554687-9.148437 1.539063-2.269532 3.6875-4.804688 5.609375-7.097657l1.707031-2.058593c2.015625-2.339844 2.605469-5.589844 1.546875-8.492188-1.058594-2.90625-3.609375-5.007812-6.660156-5.5s-6.128906.707031-8.046875 3.128906l-1.636719 1.957032c-2.289062 2.738281-4.824218 5.785156-6.65625 8.53125-2.269531 3.355468-4.429687 6.902343-6.417968 10.554687-1.988282 3.652344-3.765626 7.347656-5.394532 11.207031-1.628906 3.855469-3.0625 7.773438-4.308594 11.765625-1.246093 3.996094-2.328124 8.226563-3.148437 12.273438-.851563 4.195312-1.511719 8.464843-1.945313 12.695312-.4375 4.234375-.65625 8.714844-.65625 13.082031 0 3.414063-.117187 6.785157-.351562 10.113282-.222656 3.335937-.570312 6.636718-1.015625 9.890625-.441406 3.25-1.015625 6.5-1.707031 9.699219-.691406 3.203124-1.441406 6.359374-2.320313 9.472656-.878906 3.117187-1.824219 6.171875-2.910156 9.207031-1.082031 3.039063-2.253906 5.976563-3.507813 8.925781-1.253906 2.953125-2.617187 5.804688-4.070312 8.636719-1.449219 2.832031-2.984375 5.589844-4.617188 8.320313-1.628906 2.730468-3.34375 5.375-5.117187 7.953124-1.777344 2.578126-3.679687 5.121094-5.632813 7.601563-1.953124 2.484375-3.992187 4.882813-6.101562 7.210937-2.109375 2.332032-4.265625 4.601563-6.546875 6.828126-2.277344 2.226562-4.570313 4.316406-6.980469 6.367187-2.40625 2.046875-4.84375 4.007813-7.378906 5.902344s-5.121094 3.703125-7.757812 5.429687c-2.636719 1.722656-5.339844 3.359375-8.097657 4.90625-3.386719 1.898438-5.0625 5.84375-4.078125 9.601563.984375 3.753906 4.378906 6.375 8.257813 6.371093zm0 0"/><path d="m372.675781 187.238281c1.414063 3.324219 2.65625 6.71875 3.722657 10.171875.929687 2.953125 1.734374 5.960938 2.40625 9.019532.597656 3.03125 2.792968 5.503906 5.730468 6.460937 2.941406.953125 6.167969.246094 8.4375-1.855469 2.265625-2.097656 3.222656-5.261718 2.496094-8.265625-.777344-3.535156-1.707031-7.015625-2.765625-10.417969-1.238281-3.992187-2.675781-7.921874-4.308594-11.769531-1.59375-3.78125-3.414062-7.542969-5.394531-11.195312-1.976562-3.652344-4.101562-7.140625-6.40625-10.554688-2.304688-3.414062-4.753906-6.675781-7.363281-9.855469-2.613281-3.183593-5.378907-6.207031-8.253907-9.082031s-5.921874-5.640625-9.097656-8.269531c-3.171875-2.625-6.449218-5.058594-9.847656-7.355469-3.394531-2.292969-6.917969-4.4375-10.546875-6.40625-3.625-1.972656-7.386719-3.789062-11.203125-5.402343-3.8125-1.613282-7.800781-3.070313-11.765625-4.308594-4.035156-1.257813-8.132813-2.308594-12.273437-3.148438-4.179688-.855468-8.457032-1.511718-12.695313-1.945312-8.703125-.871094-17.472656-.871094-26.171875 0-4.269531.433594-8.535156 1.089844-12.691406 1.945312-4.144532.839844-8.246094 1.890625-12.285156 3.148438-3.996094 1.246094-7.953126 2.695312-11.769532 4.308594-3.8125 1.613281-7.558594 3.414062-11.195312 5.394531-4.140625 2.25-5.675782 7.429687-3.425782 11.574219 2.25 4.140624 7.433594 5.675781 11.574219 3.425781 3.148438-1.707031 6.382813-3.265625 9.710938-4.675781 3.328125-1.414063 6.722656-2.65625 10.171875-3.730469 3.515625-1.082031 7.09375-2.003907 10.632812-2.730469 3.640625-.753906 7.3125-1.320312 11.007813-1.707031 7.546875-.757813 15.152343-.757813 22.699219 0 3.703124.382812 7.382812.953125 11.023437 1.707031 3.527344.71875 7.101563 1.640625 10.625 2.722656 3.523437 1.082032 6.828125 2.320313 10.179687 3.730469 3.355469 1.40625 6.546876 2.960937 9.695313 4.675781s6.1875 3.550782 9.148437 5.554688c2.960938 2.003906 5.800782 4.121094 8.53125 6.382812 2.730469 2.261719 5.367188 4.652344 7.886719 7.167969 2.515625 2.515625 4.898438 5.121094 7.160157 7.875 2.261718 2.757813 4.386718 5.589844 6.390624 8.535156 2.003907 2.945313 3.847657 5.972657 5.546876 9.148438 1.699218 3.171875 3.300781 6.441406 4.683593 9.726562zm0 0"/><path d="m311.558594 474.273438c2.6875 0 5.21875-1.265626 6.828125-3.414063 3.140625-4.1875 6.199219-8.433594 9.171875-12.746094 2.976562-4.3125 5.875-8.6875 8.699218-13.125 2.808594-4.4375 5.535157-8.929687 8.183594-13.476562 2.644532-4.542969 5.203125-9.144531 7.679688-13.804688 2.457031-4.660156 4.832031-9.371093 7.132812-14.140625 2.269532-4.769531 4.472656-9.589844 6.5625-14.445312 2.089844-4.855469 4.121094-9.789063 6.023438-14.753906 1.902344-4.96875 3.738281-9.984376 5.4375-15.035157 1.695312-5.054687 3.34375-10.164062 4.855468-15.363281 1.507813-5.195312 2.941407-10.332031 4.265626-15.554688 1.320312-5.222656 2.558593-10.503906 3.632812-15.820312 1.078125-5.316406 2.117188-10.660156 3.015625-16.042969.894531-5.386719 1.707031-10.804687 2.355469-16.214843.648437-5.410157 1.242187-10.945313 1.703125-16.476563.460937-5.53125.777343-10.503906 1-16.085937.171875-4.703126-3.496094-8.660157-8.199219-8.839844h-.359375c-4.578125-.003906-8.347656 3.609375-8.535156 8.183594-.21875 5.339843-.527344 10.113281-.953125 15.359374-.425782 5.25-.980469 10.546876-1.632813 15.761719-.648437 5.214844-1.398437 10.417969-2.257812 15.582031-.863281 5.160157-1.820313 10.238282-2.878907 15.359376-1.054687 5.121093-2.21875 10.128906-3.480468 15.136718-1.261719 5.011719-2.621094 9.976563-4.070313 14.910156-1.449219 4.929688-2.996093 9.796876-4.648437 14.652344-1.65625 4.855469-3.414063 9.632813-5.207032 14.386719-1.792968 4.753906-3.746093 9.453125-5.769531 14.121094-2.023437 4.667969-4.09375 9.277343-6.28125 13.824219-2.183593 4.546874-4.46875 9.078124-6.824219 13.535156-2.355468 4.453125-4.804687 8.875-7.339843 13.226562-2.535157 4.351563-5.121094 8.660156-7.824219 12.894532-2.707031 4.230468-5.480469 8.429687-8.328125 12.566406-2.851563 4.140625-5.785156 8.195312-8.789063 12.210937-1.941406 2.585938-2.253906 6.046875-.808593 8.9375 1.445312 2.890625 4.402343 4.71875 7.632812 4.71875zm0 0"/><path d="m414.71875 425.890625c2.070312.921875 4.417969.984375 6.53125.175781s3.820312-2.425781 4.742188-4.492187c1.621093-3.644531 3.207031-7.316407 4.761718-11.027344 1.554688-3.707031 3.046875-7.425781 4.480469-11.152344 1.449219-3.753906 2.851563-7.519531 4.214844-11.324219 1.367187-3.804687 2.652343-7.59375 3.917969-11.433593 1.261718-3.839844 2.464843-7.679688 3.632812-11.5625 1.171875-3.882813 2.28125-7.785157 3.339844-11.691407 1.054687-3.910156 2.089844-7.859374 3.054687-11.820312.960938-3.957031 1.882813-7.941406 2.746094-11.945312.863281-4.003907 1.707031-8.019532 2.433594-12.050782.722656-4.027344 1.484375-8.089844 2.132812-12.148437.648438-4.0625 1.269531-8.167969 1.816407-12.273438.546874-4.101562 1.050781-8.234375 1.492187-12.355469.445313-4.121093.855469-8.300781 1.171875-12.433593l.253906-3.132813c.390625-4.695312-3.105468-8.820312-7.804687-9.210937-4.695313-.386719-8.820313 3.105469-9.210938 7.804687l-.253906 3.140625c-.316406 4.011719-.691406 8.003907-1.117187 12.007813-.429688 4-.914063 7.953125-1.445313 11.945312-.527344 3.992188-1.109375 7.894532-1.707031 11.828125-.59375 3.933594-1.320313 7.816407-2.054688 11.714844s-1.511718 7.75-2.347656 11.597656c-.835938 3.847657-1.707031 7.679688-2.652344 11.492188-.949218 3.816406-1.894531 7.605469-2.925781 11.402343-1.035156 3.796876-2.101563 7.527344-3.226563 11.253907-1.128906 3.730469-2.296874 7.460937-3.492187 11.09375-1.195313 3.636719-2.480469 7.382812-3.789063 11.027343-1.304687 3.640626-2.652343 7.285157-4.050781 10.894532-1.402343 3.609375-2.84375 7.203125-4.320312 10.761718-1.476563 3.558594-3.019531 7.109376-4.589844 10.632813-1.933594 4.292969-.023437 9.339844 4.265625 11.28125zm0 0"/><path d="m465.707031 210.347656c-1.3125-13.003906-3.929687-25.839844-7.816406-38.316406-.4375-1.390625-.855469-2.773438-1.332031-4.136719-.964844-2.898437-3.402344-5.058593-6.394532-5.667969-2.992187-.613281-6.082031.417969-8.109374 2.703126-2.023438 2.285156-2.675782 5.476562-1.710938 8.375l1.230469 3.796874c1.757812 5.65625 3.242187 11.433594 4.421875 17.175782 1.203125 5.882812 2.105468 11.820312 2.703125 17.792968.625 6.089844.945312 12.207032.957031 18.328126 0 4.714843 3.820312 8.535156 8.53125 8.535156 4.714844 0 8.535156-3.820313 8.535156-8.535156-.003906-6.695313-.339844-13.386719-1.015625-20.050782zm0 0"/><path d="m384.445312 92.160156c4.425782 3.660156 8.703126 7.550782 12.722657 11.570313s7.917969 8.304687 11.570312 12.734375c3.652344 4.425781 7.082031 9.007812 10.316407 13.796875 3.234374 4.785156 6.238281 9.71875 8.976562 14.769531 1.457031 2.679688 4.230469 4.378906 7.28125 4.460938 3.046875.078124 5.90625-1.476563 7.5-4.074219 1.59375-2.601563 1.675781-5.855469.222656-8.535157-3.015625-5.527343-6.316406-10.972656-9.832031-16.214843-3.515625-5.238281-7.347656-10.316407-11.304687-15.109375-3.960938-4.796875-8.261719-9.53125-12.65625-13.925782-4.394532-4.398437-9.078126-8.664062-13.933594-12.675781-4.855469-4.007812-9.941406-7.796875-15.113282-11.289062-2.527343-1.792969-5.824218-2.074219-8.617187-.742188-2.792969 1.335938-4.648437 4.078125-4.839844 7.167969-.195312 3.089844 1.300781 6.042969 3.90625 7.714844 4.71875 3.183594 9.371094 6.65625 13.800781 10.351562zm0 0"/><path d="m224.203125 57.222656c3.347656-.886718 6.722656-1.683594 10.128906-2.386718 5.878907-1.199219 11.816407-2.101563 17.785157-2.707032 12.199218-1.238281 24.492187-1.238281 36.695312 0 5.96875.605469 11.910156 1.507813 17.789062 2.707032 5.742188 1.175781 11.511719 2.660156 17.160157 4.417968 4.78125 1.488282 9.59375 3.210938 14.320312 5.121094 4.367188 1.777344 9.347657-.320312 11.125-4.6875 1.773438-4.367188-.324219-9.347656-4.691406-11.125-5.171875-2.097656-10.453125-3.992188-15.683594-5.621094-6.179687-1.921875-12.519531-3.550781-18.773437-4.839844-6.441406-1.316406-12.941406-2.308593-19.480469-2.96875-13.335937-1.351562-26.773437-1.351562-40.109375 0-6.539062.660157-13.046875 1.652344-19.488281 2.96875-3.738281.769532-7.4375 1.636719-11.09375 2.609376-4.554688 1.214843-7.261719 5.890624-6.050781 10.445312 1.214843 4.554688 5.890624 7.265625 10.445312 6.050781zm0 0"/><path d="m79.417969 255.453125c2.21875.453125 4.527343 0 6.410156-1.257813 1.882813-1.257812 3.1875-3.21875 3.617187-5.441406.402344-1.976562.726563-3.984375 1-5.972656.273438-1.988281.46875-4.105469.605469-6.144531.136719-2.039063.203125-4.136719.203125-6.238281.003906-12.128907 1.222656-24.230469 3.636719-36.121094 1.1875-5.757813 2.671875-11.535156 4.429687-17.175782 1.757813-5.640624 3.746094-11.09375 6.015626-16.453124 2.269531-5.359376 4.785156-10.597657 7.550781-15.660157 2.765625-5.058593 5.777343-10.058593 8.96875-14.777343 3.191406-4.71875 6.664062-9.386719 10.316406-13.789063 3.652344-4.40625 7.542969-8.714844 11.570313-12.734375 4.03125-4.019531 8.3125-7.917969 12.734374-11.570312 4.417969-3.652344 9.019532-7.089844 13.796876-10.316407 4.78125-3.226562 9.710937-6.230469 14.789062-8.976562 3.414062-1.851563 6.871094-3.589844 10.375-5.222657 2.863281-1.21875 4.832031-3.898437 5.144531-6.992187.316407-3.09375-1.078125-6.109375-3.636719-7.878906-2.558593-1.765625-5.875-2.003907-8.65625-.617188-3.875 1.78125-7.671874 3.683594-11.394531 5.707031-5.546875 3.015626-10.988281 6.332032-16.210937 9.839844-5.222656 3.507813-10.308594 7.339844-15.105469 11.296875-4.796875 3.960938-9.523437 8.253907-13.925781 12.65625-4.402344 4.402344-8.644532 9.078125-12.644532 13.945313-4.003906 4.863281-7.800781 9.929687-11.292968 15.101562-3.488282 5.171875-6.824219 10.609375-9.828125 16.214844-3.003907 5.605469-5.804688 11.316406-8.269531 17.160156-2.464844 5.84375-4.710938 11.945313-6.597657 18.03125-1.929687 6.191406-3.546875 12.472656-4.84375 18.824219-1.308593 6.375-2.304687 12.929687-2.980469 19.480469-.667968 6.65625-1.003906 13.339844-1.007812 20.027344 0 1.707031-.050781 3.414062-.167969 5.121093-.121093 1.707031-.265625 3.3125-.496093 4.984375-.230469 1.671875-.488282 3.285156-.8125 4.898438-.445313 2.222656.011718 4.53125 1.269531 6.417968 1.257812 1.886719 3.214843 3.191407 5.4375 3.632813zm0 0"/><path d="m61.789062 272.214844c-.851562 1.328125-1.773437 2.636718-2.722656 3.90625-.945312 1.273437-1.945312 2.558594-2.96875 3.738281-1.023437 1.175781-2.105468 2.40625-3.183594 3.542969-1.074218 1.132812-2.242187 2.269531-3.414062 3.359375-1.167969 1.09375-2.363281 2.117187-3.574219 3.105469-1.210937.992187-2.5 1.980468-3.804687 2.921874-1.304688.9375-2.621094 1.816407-3.96875 2.660157-3.175782 2.035156-4.640625 5.914062-3.597656 9.542969 1.039062 3.625 4.339843 6.136718 8.113281 6.175781 1.597656.003906 3.167969-.449219 4.519531-1.304688 1.65625-1.035156 3.277344-2.125 4.855469-3.253906 1.582031-1.125 3.117187-2.3125 4.644531-3.546875 1.527344-1.238281 2.960938-2.511719 4.378906-3.816406 1.414063-1.304688 2.796875-2.671875 4.171875-4.085938 1.371094-1.417968 2.617188-2.832031 3.882813-4.320312 1.261718-1.484375 2.449218-2.992188 3.601562-4.546875 1.152344-1.550781 2.292969-3.164063 3.359375-4.804688 1.871094-2.550781 2.175781-5.929687.792969-8.773437-1.386719-2.847656-4.230469-4.691406-7.394531-4.796875-3.160157-.105469-6.121094 1.546875-7.691407 4.296875zm0 0"/><path d="m73.726562 333.089844c2.21875-1.707032 4.40625-3.414063 6.53125-5.195313 2.121094-1.785156 4.1875-3.679687 6.183594-5.617187 2-1.9375 3.945313-3.933594 5.8125-5.972656 2.054688-2.257813 2.746094-5.4375 1.816406-8.34375-.925781-2.910157-3.335937-5.097657-6.316406-5.75-2.984375-.648438-6.085937.34375-8.136718 2.601562-1.632813 1.789062-3.316407 3.523438-5.042969 5.203125-1.730469 1.679687-3.519531 3.300781-5.367188 4.863281-1.835937 1.570313-3.738281 3.082032-5.675781 4.523438s-3.933594 2.824218-5.972656 4.148437c-2.039063 1.320313-4.105469 2.558594-6.230469 3.746094-3.855469 2.410156-5.144531 7.417969-2.929687 11.386719 2.210937 3.972656 7.144531 5.511718 11.222656 3.503906 2.457031-1.375 4.875-2.824219 7.210937-4.335938 2.339844-1.511718 4.644531-3.089843 6.894531-4.761718zm0 0"/><path d="m358.332031 458.136719c4.03125 2.4375 9.277344 1.148437 11.714844-2.882813 2.480469-4.097656 4.898437-8.242187 7.253906-12.441406s4.632813-8.429688 6.828125-12.691406c2.210938-4.269532 4.355469-8.582032 6.433594-12.933594 2.074219-4.363281 3.855469-8.269531 5.785156-12.707031 1.21875-2.796875.855469-6.03125-.957031-8.484375s-4.792969-3.753906-7.824219-3.414063c-3.03125.34375-5.648437 2.277344-6.867187 5.070313-1.851563 4.269531-3.570313 7.988281-5.558594 12.179687-1.988281 4.1875-4.050781 8.320313-6.175781 12.421875-2.125 4.105469-4.308594 8.167969-6.554688 12.195313-2.242187 4.027343-4.574218 8.003906-6.960937 11.945312-1.179688 1.941407-1.539063 4.269531-.996094 6.472657.539063 2.203124 1.9375 4.097656 3.878906 5.269531zm0 0"/><path d="m401.210938 377.003906c3.652343-.003906 6.898437-2.328125 8.074218-5.785156.914063-2.691406 1.816406-5.394531 2.679688-8.101562 1.488281-4.644532 2.910156-9.332032 4.265625-14.050782 1.347656-4.710937 2.558593-9.472656 3.773437-14.234375 1.210938-4.761719 2.277344-9.59375 3.300782-14.441406 1.023437-4.84375 1.953124-9.699219 2.816406-14.617187.859375-4.914063 1.613281-9.8125 2.3125-14.769532.699218-4.957031 1.289062-9.925781 1.824218-14.933594.539063-5.007812.957032-10.035156 1.308594-15.085937.347656-5.050781.621094-10.136719.785156-15.222656.160157-5.085938.269532-10.242188.269532-15.363281 0-5.535157-.28125-11.089844-.851563-16.5625-.550781-5.402344-1.375-10.773438-2.464843-16.09375-1.066407-5.242188-2.398438-10.429688-3.996094-15.539063-1.542969-4.984375-3.410156-10-5.460938-14.914063-2.21875-5.25-6.945312-14.082031-8.875-17.632812-2.25-4.140625-7.433594-5.675781-11.574218-3.425781-4.144532 2.25-5.675782 7.433593-3.425782 11.578125 3.78125 6.9375 6.828125 12.960937 8.15625 16.125 3.714844 8.777344 6.546875 17.898437 8.457032 27.230468.976562 4.757813 1.707031 9.5625 2.195312 14.394532.5 4.933594.746094 9.886718.742188 14.839844 0 4.945312-.085938 9.871093-.257813 14.78125-.171875 4.910156-.425781 9.785156-.765625 14.625-.335938 4.863281-.761719 9.695312-1.246094 14.507812-.488281 4.8125-1.09375 9.601562-1.707031 14.34375-.617187 4.746094-1.417969 9.5-2.238281 14.199219-.816406 4.703125-1.707032 9.386719-2.695313 14.039062-.988281 4.648438-2.039062 9.265625-3.183593 13.867188-1.144532 4.597656-2.328126 9.148437-3.601563 13.652343-1.269531 4.503907-2.644531 9.027344-4.070313 13.492188-.835937 2.621094-1.6875 5.222656-2.558593 7.796875-1.519531 4.460937.863281 9.308594 5.324219 10.832031.863281.300782 1.773437.457032 2.6875.46875zm0 0"/><path d="m333.566406 81.015625c-4.871094-2.066406-9.878906-3.898437-14.898437-5.460937-10.304688-3.195313-20.90625-5.351563-31.640625-6.433594-3.035156-.304688-6 1.03125-7.78125 3.503906-1.78125 2.476562-2.105469 5.710938-.851563 8.492188 1.253907 2.777343 3.894531 4.679687 6.925781 4.984374 4.835938.488282 9.644532 1.222657 14.40625 2.203126 4.6875.949218 9.328126 2.140624 13.898438 3.566406 4.472656 1.390625 8.960938 3.035156 13.328125 4.878906 4.371094 1.84375 8.535156 3.847656 12.671875 6.101562 4.140625 2.253907 8.125 4.675782 11.949219 7.269532 3.820312 2.597656 7.550781 5.378906 11.160156 8.355468 2.867187 2.363282 10.054687 9.320313 15.503906 14.769532 3.351563 3.234375 8.675781 3.183594 11.964844-.109375 3.289063-3.296875 3.332031-8.617188.09375-11.964844-1.988281-1.988281-12.140625-12.097656-16.707031-15.871094-4.027344-3.328125-8.234375-6.46875-12.476563-9.328125-4.242187-2.855468-8.773437-5.628906-13.371093-8.128906-4.601563-2.5-9.421876-4.824219-14.175782-6.828125zm0 0"/><path d="m179.796875 95.964844c-4.265625 2.894531-8.53125 6.035156-12.484375 9.328125-3.949219 3.292969-7.851562 6.828125-11.503906 10.460937-3.652344 3.636719-7.175782 7.527344-10.453125 11.503906-3.277344 3.976563-6.441407 8.191407-9.34375 12.484376-2.648438 3.914062-1.621094 9.234374 2.292969 11.882812 3.914062 2.648438 9.234374 1.621094 11.882812-2.292969 2.59375-3.859375 5.378906-7.585937 8.34375-11.167969 2.945312-3.566406 6.085938-7.039062 9.386719-10.308593 3.304687-3.269531 6.734375-6.417969 10.308593-9.386719 3.574219-2.96875 7.332032-5.761719 11.164063-8.355469 3.828125-2.59375 7.875-5.042969 11.945313-7.269531 4.070312-2.226562 8.371093-4.265625 12.671874-6.109375 4.300782-1.84375 8.847657-3.480469 13.328126-4.871094 4.480468-1.394531 9.234374-2.621093 13.894531-3.570312 4.617187-.941407 7.597656-5.449219 6.65625-10.066407-.945313-4.621093-5.453125-7.601562-10.070313-6.65625-5.207031 1.066407-10.4375 2.40625-15.539062 3.992188-5.105469 1.585938-10.027344 3.414062-14.910156 5.460938-4.878907 2.046874-9.574219 4.328124-14.171876 6.828124-4.601562 2.5-9.097656 5.214844-13.398437 8.113282zm0 0"/><path d="m101.648438 289.332031c4.324218 1.871094 9.347656-.113281 11.222656-4.4375.339844-.777343.894531-1.972656 1.5-3.304687 1.382812-2.976563 3.011718-6.542969 3.652344-8.34375.964843-2.6875 1.835937-5.417969 2.5625-8.167969.722656-2.746094 1.464843-5.554687 2.046874-8.371094.578126-2.816406 1.09375-5.699219 1.492188-8.601562.402344-2.898438.710938-5.820313.914062-8.769531.203126-2.953126.308594-5.976563.308594-8.9375 0-4.953126.25-9.90625.75-14.839844.496094-4.871094 1.238282-9.710938 2.191406-14.402344 1-4.855469 3.492188-14.976562 4.882813-19.414062.914063-2.910157.207031-6.089844-1.859375-8.335938-2.0625-2.25-5.167969-3.222656-8.148438-2.5625-2.980468.664062-5.375 2.867188-6.292968 5.777344-1.578125 5.121094-4.195313 15.703125-5.296875 21.070312-1.089844 5.328125-1.910157 10.703125-2.457031 16.109375-.546876 5.445313-.855469 11.027344-.855469 16.566407 0 2.558593-.085938 5.1875-.273438 7.753906-.1875 2.570312-.433593 5.121094-.785156 7.605468-.347656 2.484376-.777344 4.972657-1.296875 7.449219-.519531 2.472657-1.101562 4.863281-1.773438 7.269531-.675781 2.40625-1.417968 4.71875-2.234374 7.03125-.53125 1.492188-1.921876 4.445313-3.066407 6.914063-.679687 1.484375-1.296875 2.804687-1.707031 3.675781-.90625 2.09375-.9375 4.460938-.089844 6.578125.851563 2.117188 2.511719 3.804688 4.613282 4.6875zm0 0"/></svg>